<svg width="221" height="83" viewBox="0 0 221 83" fill="none" xmlns="http://www.w3.org/2000/svg">
<g clip-path="url(#clip0_206:103)">
<path d="M107.641 79.052C107.672 79.052 107.704 79.0418 107.745 79.0418C102.61 80.7998 98.8677 75.248 94.034 74.9087C92.9217 74.8367 91.7783 75.0218 90.666 74.8265C88.0464 74.3433 86.5391 71.8141 85.6763 69.5419C84.9175 67.5268 84.4913 65.4089 83.5141 63.4966C82.641 61.7694 81.1856 60.2066 79.3457 59.7131C80.1565 59.8468 81.0401 59.8982 81.7782 60.258C82.932 60.8132 83.5661 62.0367 84.0859 63.1985C84.9487 65.1108 85.7075 67.1053 86.9653 68.7811C88.2335 70.4467 90.167 71.7935 92.2772 71.7832C93.5454 71.773 94.772 71.2795 96.0299 71.0019C97.2877 70.7448 98.743 70.7654 99.6889 71.6085C100.157 72.0197 100.437 72.5955 100.718 73.1506C101.446 74.6003 102.142 76.1013 103.265 77.294C104.408 78.466 106.051 79.3091 107.641 79.052Z" fill="#FFF666"/>
<path d="M107.767 78.9082L107.829 79.1241C104.804 80.1728 102.216 78.6717 99.7106 77.2324C97.9122 76.2145 96.0619 75.135 94.0764 75.0014C93.619 74.9705 93.1408 74.9808 92.7043 74.9911C92.039 75.0014 91.3529 75.0219 90.6876 74.9088C87.9641 74.4256 86.4256 71.7422 85.6044 69.5626C85.3237 68.8224 85.0846 68.041 84.8559 67.2905C84.4713 66.0362 84.0659 64.7202 83.4526 63.5276C82.4651 61.5947 80.9786 60.2376 79.3569 59.7955L79.3985 59.5796C79.5648 59.6002 79.7519 59.6413 79.9391 59.6618C80.5939 59.7544 81.2696 59.8469 81.8622 60.1451C83.0576 60.7311 83.7021 61.9957 84.2218 63.1369C84.3778 63.4762 84.5233 63.8154 84.6688 64.165C85.3445 65.7175 86.041 67.3316 87.0909 68.699C88.5046 70.5702 90.4693 71.6703 92.3196 71.66C93.172 71.66 94.0244 71.4235 94.8457 71.1973C95.2407 71.0945 95.6565 70.9814 96.0619 70.8889C96.9766 70.6935 98.7022 70.5188 99.8145 71.5263C100.303 71.9684 100.605 72.5956 100.854 73.0993L100.989 73.3872C101.644 74.734 102.341 76.122 103.359 77.2221C104.596 78.5278 106.197 79.1858 107.632 78.9493C107.652 78.9391 107.673 78.9391 107.694 78.9391L107.767 78.9082ZM85.4381 68.5037C85.542 68.8121 85.6564 69.1308 85.7707 69.4392C86.5607 71.5572 88.068 74.1789 90.6772 74.6518C91.3217 74.7649 91.9974 74.7443 92.6419 74.7341C93.0993 74.7341 93.5774 74.7135 94.0348 74.7443C96.0827 74.878 97.9538 75.9575 99.7729 76.9959C102.008 78.2913 104.149 79.5251 106.613 79.1447C105.407 79.0316 104.18 78.3941 103.172 77.3249C102.122 76.194 101.426 74.806 100.76 73.4386L100.625 73.1507C100.386 72.6675 100.095 72.0712 99.6274 71.6497C98.5879 70.7141 96.9559 70.8889 96.0723 71.0739C95.6773 71.1562 95.2614 71.2693 94.8664 71.3824C94.0244 71.6189 93.172 71.845 92.2884 71.8553C90.3654 71.8656 88.3383 70.7244 86.883 68.8018C85.8331 67.4139 85.1158 65.7894 84.4401 64.2164C84.2842 63.8771 84.1491 63.5378 83.9932 63.1883C83.5046 62.0985 82.8809 60.8647 81.7478 60.3198C81.3216 60.1142 80.8538 60.0114 80.3549 59.9394C81.6543 60.5871 82.8081 61.8106 83.6293 63.4145C84.2426 64.6276 84.6584 65.9436 85.0431 67.2185C85.1886 67.6606 85.3237 68.1027 85.4381 68.5037Z" fill="#FFF666"/>
<path d="M138.837 11.1858C140.157 10.8157 144.419 9.03702 145.76 9.61276C146.706 10.024 147.933 10.3427 148.307 11.2989C147.839 13.0467 147.382 14.815 147.309 16.6348C147.236 18.2798 147.476 19.9145 147.32 21.5389C147.132 23.3073 146.498 24.9831 146.051 26.7001C145.937 27.1525 145.833 27.5946 145.75 28.0469C144.898 30.5864 142.746 31.3883 141.446 34.7503C140.584 36.4467 140.916 35.5625 140.043 37.2692C138.099 41.104 136.134 44.9184 134.17 48.7327C133.317 50.3879 132.309 50.8917 130.729 51.6937C127.163 53.5031 126.394 57.3483 123.775 60.042C123.234 60.5972 122.579 61.1009 121.8 61.2346C119.086 61.6972 115.812 56.68 113.224 59.3223C112.444 60.1242 112.34 61.3168 112.132 62.4066C111.945 63.3422 111.664 64.2675 111.269 65.1312C111.072 65.5938 110.802 66.0667 110.355 66.2724C109.502 66.6631 108.567 65.8714 108.047 65.09C107.07 63.6095 106.55 61.8823 105.75 60.299C105.053 58.9419 104.045 57.5642 102.589 56.9371C100.791 56.1763 99.2526 57.1427 97.4335 57.2044C95.8119 57.2661 94.2318 56.495 93.0987 55.3435C91.737 53.9761 90.7495 52.0329 90.7598 50.0692C90.7702 47.8279 92.4127 46.2138 93.7848 44.6099C95.3337 42.8004 95.5832 40.6414 95.7287 38.3487C95.7911 37.3617 95.9886 36.313 96.342 35.3877C96.6643 34.8531 96.9657 34.2773 97.2672 33.7016C97.2776 33.6913 97.2776 33.6913 97.2776 33.6913C97.2672 33.7016 97.2672 33.7016 97.2672 33.7016C97.6102 33.0127 97.9429 32.3239 98.2755 31.6248C98.6393 30.8948 99.0447 30.1649 99.5021 29.4657C99.9595 29.075 100.396 28.6638 100.781 28.2011C101.519 27.3684 102.142 26.4328 102.974 25.7028C103.244 25.4869 103.535 25.2916 103.816 25.1168C101.945 27.3992 100.646 30.1032 99.3774 32.766C98.6601 34.267 97.9325 35.7784 97.5063 37.372C97.2464 38.3795 97.0905 39.4179 96.9969 40.446C96.9241 41.4227 96.8826 42.4097 97.132 43.3556C97.3919 44.322 97.9221 45.1857 98.473 46.0287C98.7953 46.5531 99.1383 47.0877 99.6165 47.4886C100.864 48.5579 102.714 48.5476 104.149 49.329C105.043 49.8122 105.739 50.5833 106.519 51.231C107.309 51.8787 108.265 52.4339 109.274 52.3619C111.342 52.1974 113.224 52.3825 115.271 52.1255C119.43 51.6114 123.525 49.7814 127.08 47.6429C129.762 46.0184 132.216 43.9108 133.816 41.2274C134.866 39.459 135.521 37.4953 136.311 35.5933C137.756 32.0669 139.69 28.746 142.039 25.7234C143.453 23.9036 144.295 22.6082 144.211 20.2949C144.17 19.4621 144.336 18.6191 144.679 17.848C144.887 17.3956 145.147 16.9741 145.272 16.4909C145.386 16.0077 145.334 15.4525 144.97 15.1132C144.627 14.7842 144.076 14.7534 143.723 14.4244C143.38 14.1159 143.328 13.6121 143.172 13.1803C142.704 11.8438 141.01 10.5381 138.837 11.1858Z" fill="#FFF666"/>
<path d="M107.974 78.8257C104.866 80.0286 102.319 78.5687 99.6268 77.0265C97.7869 75.9675 95.8846 74.8777 93.7951 74.7338C93.3274 74.7029 92.8284 74.7132 92.3814 74.7235C91.7161 74.7338 91.0301 74.7543 90.3752 74.6413C87.7244 74.1683 86.1963 71.5158 85.3959 69.367C85.1048 68.6165 84.8762 67.8351 84.6371 67.0743C84.2317 65.7892 83.8262 64.4526 83.1921 63.2394C82.0279 60.9673 80.1776 59.4559 78.2337 59.2195L78.2129 59.4457C80.084 59.6821 81.8824 61.1421 83.005 63.3422C83.6183 64.5554 84.0237 65.8817 84.4188 67.1566C84.6475 67.9174 84.8865 68.709 85.1776 69.4595C86.0092 71.6597 87.5685 74.3842 90.3336 74.8674C90.9989 74.9908 91.7057 74.9703 92.371 74.9497C92.8388 74.9394 93.317 74.9291 93.7744 74.96C95.8118 75.0936 97.6933 76.1731 99.5125 77.2115C102.132 78.7126 104.845 80.2548 108.047 79.0108L107.974 78.8257Z" fill="#FFF666"/>
<path d="M145.033 15.0413C144.846 14.8665 144.607 14.7637 144.378 14.6712C144.16 14.5684 143.952 14.4861 143.785 14.3319C143.557 14.116 143.463 13.8075 143.37 13.4785C143.338 13.3655 143.307 13.2524 143.266 13.1393C142.725 11.6074 140.896 10.425 138.765 11.0933L138.827 11.3092C141.031 10.6307 142.611 12.0186 143.037 13.2215C143.079 13.3346 143.11 13.4374 143.131 13.5505C143.234 13.9001 143.328 14.2599 143.609 14.5169C143.806 14.702 144.045 14.8048 144.274 14.8974C144.492 15.0002 144.69 15.0824 144.856 15.2264C145.199 15.5553 145.22 16.1003 145.126 16.5012C145.054 16.8199 144.898 17.1181 144.742 17.4368C144.679 17.5705 144.607 17.6938 144.555 17.8481C144.212 18.6294 144.035 19.5033 144.066 20.3464C144.149 22.6596 143.318 23.9037 141.925 25.7132C139.586 28.7358 137.652 32.0772 136.187 35.6037C135.999 36.0869 135.802 36.5598 135.615 37.043C135.064 38.4618 134.482 39.9115 133.702 41.2275C132.257 43.6538 130.001 45.8026 127.008 47.6018C122.818 50.1207 118.868 51.6115 115.24 52.0741C114.107 52.2181 113.005 52.2181 111.924 52.2283C111.062 52.2283 110.157 52.2386 109.242 52.3106C108.421 52.3723 107.527 52.0022 106.571 51.2105C106.353 51.0254 106.114 50.8198 105.895 50.6142C105.365 50.131 104.814 49.6478 104.18 49.2982C103.567 48.9589 102.86 48.7636 102.184 48.5785C101.238 48.3215 100.355 48.0747 99.6582 47.4784C99.18 47.0775 98.8474 46.5428 98.5251 46.0391C97.995 45.2063 97.4544 44.3632 97.2049 43.3968C96.9554 42.4612 97.0074 41.4742 97.0906 40.5284C97.2049 39.3255 97.3505 38.359 97.5999 37.4646C98.0261 35.8813 98.7434 34.3494 99.4503 32.8894C100.833 30.0107 102.236 27.0394 104.419 24.6131L104.253 24.4589C102.059 26.9058 100.625 29.8976 99.2424 32.7866C98.5251 34.2671 97.7975 35.799 97.3713 37.4131C97.1322 38.3076 96.9658 39.2946 96.8619 40.4975C96.7787 41.4537 96.7372 42.4715 96.997 43.4482C97.2569 44.4558 97.8079 45.3194 98.3588 46.1624C98.6914 46.6971 99.0241 47.2317 99.523 47.6532C100.261 48.2906 101.217 48.558 102.143 48.815C102.808 49 103.484 49.1851 104.086 49.5141C104.7 49.8431 105.23 50.3263 105.75 50.789C105.968 50.9843 106.197 51.2002 106.436 51.3956C107.444 52.2283 108.4 52.6087 109.274 52.5471C110.188 52.4751 111.082 52.4751 111.945 52.4648C113.016 52.4648 114.139 52.4545 115.292 52.3106C118.941 51.8479 122.933 50.3469 127.153 47.8074C130.178 45.9774 132.465 43.8183 133.931 41.3508C134.721 40.0246 135.303 38.5544 135.854 37.1356C136.041 36.6523 136.228 36.1691 136.426 35.6962C137.871 32.18 139.804 28.8695 142.133 25.8571C143.515 24.0682 144.43 22.7213 144.336 20.3464C144.295 19.5239 144.471 18.6911 144.804 17.9509C144.856 17.8172 144.918 17.6938 144.991 17.5499C145.147 17.2415 145.313 16.9125 145.397 16.5732C145.469 16.2853 145.48 15.9152 145.376 15.5965C145.303 15.3806 145.199 15.1852 145.033 15.0413Z" fill="#FFF666"/>
<path d="M141.384 34.7504C140.958 35.5935 140.822 35.8094 140.698 36.0047C140.573 36.2206 140.438 36.4159 140.001 37.2796C137.756 41.6902 135.895 45.3297 134.128 48.7431C133.296 50.3367 132.361 50.8199 130.802 51.6115L130.739 51.6424C128.515 52.7733 127.361 54.7062 126.217 56.5773C125.5 57.7597 124.752 58.9831 123.754 60.0113C123.099 60.6692 122.475 61.0599 121.831 61.1627C120.76 61.3478 119.533 60.6076 118.348 59.8673C116.591 58.7981 114.772 57.6774 113.192 59.2916C112.506 60.001 112.329 60.988 112.153 61.9647C112.132 62.1292 112.101 62.2937 112.07 62.4479C111.893 63.3835 111.612 64.2779 111.228 65.1416C111.04 65.5631 110.791 66.0257 110.365 66.2211C109.596 66.5706 108.722 65.8921 108.192 65.0901C107.6 64.1854 107.163 63.1676 106.747 62.1703C106.487 61.5431 106.207 60.9057 105.895 60.2991C105.022 58.5719 103.941 57.4204 102.683 56.8858C101.467 56.3717 100.406 56.6082 99.2732 56.8549C98.691 56.9783 98.0881 57.112 97.4748 57.1428C95.9779 57.1942 94.3979 56.5259 93.2232 55.323C91.7575 53.8425 90.9051 51.8891 90.9051 50.1105C90.9155 48.1365 92.2045 46.656 93.4519 45.2372C93.6078 45.0727 93.743 44.8979 93.8885 44.7334C95.4374 42.9137 95.7076 40.7957 95.8636 38.4105C95.9883 36.5393 96.5496 34.8738 97.3917 33.8148L97.2045 33.6812C96.3313 34.7607 95.7596 36.4776 95.6245 38.4002C95.4686 40.7443 95.2087 42.8314 93.7014 44.5895C93.5663 44.754 93.4103 44.9288 93.2648 45.0933C91.9966 46.5429 90.666 48.0542 90.666 50.1105C90.666 51.9611 91.56 53.9659 93.0465 55.4875C94.2731 56.7316 95.9259 57.441 97.4748 57.3793C98.1193 57.3587 98.7222 57.225 99.3043 57.0914C100.396 56.8549 101.435 56.6287 102.568 57.1017C103.785 57.6157 104.814 58.7261 105.677 60.4122C105.988 61.0188 106.259 61.6562 106.519 62.2731C106.945 63.2807 107.381 64.2985 107.984 65.2238C108.577 66.108 109.564 66.8277 110.448 66.437C110.936 66.2108 111.217 65.6967 111.425 65.2341C111.81 64.3602 112.09 63.4246 112.277 62.489C112.309 62.3245 112.34 62.1703 112.361 62.0058C112.527 61.0702 112.704 60.1141 113.327 59.4663C114.772 57.9756 116.435 58.9934 118.182 60.0729C119.398 60.8132 120.666 61.5946 121.831 61.3992C122.517 61.2656 123.182 60.8749 123.868 60.1655C124.887 59.1065 125.635 57.883 126.363 56.6801C127.527 54.7576 128.629 52.9378 130.791 51.8274L130.854 51.7966C132.402 51.0152 133.421 50.4909 134.284 48.8253C136.041 45.4017 137.912 41.7622 140.157 37.3618C140.583 36.5188 140.718 36.3029 140.843 36.1075C140.968 35.8916 141.103 35.6963 141.54 34.8326L141.384 34.7504Z" fill="#FFF666"/>
<path d="M145.261 16.4807C144.897 17.3135 144.679 18.2491 144.783 19.1538C144.897 20.0586 145.324 20.9325 145.251 21.8681C145.24 22.341 145.136 22.8036 144.96 23.2252C144.773 23.657 144.513 24.0477 144.274 24.4281C143.764 25.2094 143.203 25.9497 142.652 26.6796C141.54 28.1499 140.469 29.6509 139.752 31.3576C139.024 33.0334 138.494 34.8121 137.985 36.5701C137.475 38.3488 136.955 40.1069 136.269 41.8238C135.916 42.6669 135.511 43.5202 134.908 44.2296C134.294 44.9493 133.525 45.4942 132.735 45.9774C131.966 46.4606 131.145 46.913 130.417 47.4785C129.679 48.0337 129.086 48.7533 128.504 49.4525C127.361 50.8815 126.301 52.4443 124.783 53.5547C124.024 54.0996 123.161 54.5108 122.246 54.7061C121.332 54.9221 120.396 54.9837 119.461 54.994C117.621 55.0249 115.708 54.9426 114.003 55.7034C112.329 56.4745 111.259 58.2018 109.408 58.7775C108.972 58.9112 108.462 58.9626 108.016 58.8186C107.558 58.6747 107.184 58.356 106.903 57.9858C106.321 57.2559 105.957 56.4025 105.438 55.6417C104.949 54.8809 104.471 54.0379 103.691 53.5649C103.296 53.3285 102.828 53.2359 102.371 53.2976C101.903 53.3593 101.487 53.5547 101.072 53.7603C100.656 53.9659 100.24 54.1715 99.7826 54.3052C99.346 54.4388 98.8262 54.4491 98.3896 54.2435C97.9634 54.0276 97.6412 53.6883 97.3397 53.3387C97.0487 52.9892 96.768 52.6293 96.4146 52.3312C96.0611 52.033 95.6349 51.848 95.1983 51.7143C94.7617 51.5704 94.3044 51.6321 93.8262 51.6115C93.3272 51.5807 92.9322 51.2208 92.6723 50.8507C92.4125 50.4703 92.2669 50.0179 92.2045 49.545C92.0798 48.6197 92.2253 47.6635 92.6619 46.841C93.1089 46.0185 93.847 45.3811 94.6786 44.9699L94.7098 45.0316C93.8989 45.4428 93.1921 46.1008 92.7763 46.9027C92.3709 47.7047 92.2669 48.63 92.4125 49.5039C92.4748 49.946 92.6308 50.3675 92.8698 50.7068C93.1193 51.0461 93.4624 51.3236 93.8366 51.3339C94.2212 51.3236 94.8033 51.2517 95.2815 51.4059C95.7493 51.5395 96.2171 51.7349 96.6225 52.0536C97.0383 52.362 97.3397 52.7733 97.6204 53.1023C97.9115 53.4416 98.2441 53.75 98.5664 53.9042C99.2316 54.2332 100.032 53.8014 100.874 53.3799C101.3 53.1743 101.758 52.9583 102.298 52.8761C102.86 52.8041 103.431 52.9172 103.909 53.1845C104.876 53.7603 105.354 54.6547 105.853 55.4053C106.404 56.1661 106.81 57.0605 107.329 57.6774C107.6 57.9858 107.87 58.2223 108.192 58.3251C108.514 58.4279 108.878 58.3971 109.263 58.2737C110.022 58.0373 110.718 57.4924 111.404 56.896C112.09 56.2997 112.818 55.6315 113.764 55.1894C115.635 54.3463 117.652 54.4388 119.461 54.3977C120.386 54.3874 121.269 54.3257 122.111 54.1201C122.953 53.9145 123.702 53.5649 124.409 53.0612C125.802 52.0433 126.851 50.5423 128.026 49.0926C128.328 48.7225 128.629 48.3627 128.962 48.0131C129.274 47.6533 129.679 47.3037 130.053 47.0158C130.833 46.4195 131.675 45.9877 132.444 45.4942C133.213 45.0316 133.931 44.5175 134.471 43.8801C135.012 43.2632 135.417 42.4304 135.76 41.6285C136.425 39.9629 136.976 38.2151 137.517 36.4571C138.057 34.699 138.608 32.9203 139.388 31.2034C139.773 30.35 140.22 29.5275 140.75 28.7359C141.28 27.9545 141.852 27.2143 142.423 26.4946C143.005 25.7749 143.577 25.0449 144.087 24.2944C144.326 23.9243 144.596 23.5336 144.773 23.1429C144.96 22.7522 145.074 22.3204 145.095 21.8783C145.178 20.9942 144.804 20.1305 144.689 19.1949C144.606 18.2388 144.856 17.3238 145.24 16.4807H145.261Z" fill="white"/>
<path d="M99.5435 29.363C98.4105 30.3706 97.215 31.3062 95.9468 32.1287C94.6682 32.9409 93.3065 33.6194 91.8719 34.0821C91.1547 34.3186 90.4062 34.4522 89.6786 34.7195C88.9301 34.9663 88.2752 35.4084 87.6827 35.9019C87.0902 36.3851 86.5392 36.9094 85.9363 37.3515C85.3438 37.7936 84.6577 38.0918 83.9509 38.3385C83.2336 38.575 82.5059 38.7806 81.7783 39.0479C81.061 39.3049 80.3334 39.6545 79.7408 40.1891C79.4498 40.4667 79.2003 40.7751 79.0028 41.1144C78.7845 41.4537 78.6597 41.8341 78.5454 42.2042C78.3271 42.965 78.2959 43.7464 78.3271 44.5072C78.3999 46.0494 78.8573 47.499 78.9924 48.9795C79.0652 49.7095 79.0548 50.4497 78.9092 51.1591C78.7533 51.8788 78.4207 52.5368 78.0464 53.1845C77.6722 53.822 77.2564 54.4594 76.9549 55.1791C76.6535 55.8988 76.4872 56.6801 76.5807 57.4718C76.6223 57.8625 76.7471 58.2532 76.9653 58.6027C77.1836 58.9523 77.4851 59.2402 77.8385 59.4252C78.5558 59.8056 79.3562 59.857 80.0943 59.9701C80.8323 60.0626 81.5912 60.2066 82.1733 60.659C82.7658 61.0908 83.192 61.7282 83.5454 62.3862C83.8989 63.0442 84.1899 63.7433 84.4914 64.4321C84.7929 65.121 85.0943 65.8098 85.4374 66.4884C86.113 67.8455 86.955 69.1512 88.1089 70.1588C88.6806 70.6523 89.3251 71.0944 90.032 71.3925C90.7389 71.7112 91.5081 71.8757 92.2773 71.8757C93.847 71.8552 95.2607 71.1458 96.7576 71.0018C97.4957 70.9401 98.2649 70.9813 98.9302 71.2897C99.2629 71.4439 99.5539 71.6598 99.793 71.9374C100.022 72.2253 100.209 72.544 100.386 72.873C101.051 74.2096 101.664 75.6181 102.61 76.8313C103.078 77.4378 103.629 77.9827 104.294 78.4043C104.949 78.8361 105.687 79.1342 106.477 79.2371C106.862 79.2885 107.277 79.2782 107.672 79.2062C107.87 79.1548 108.078 79.124 108.255 79.052C108.359 79.0211 108.442 78.9903 108.546 78.9595L108.816 78.8361C109.533 78.4968 110.136 77.9519 110.656 77.3967C111.695 76.2452 112.454 74.9087 113.4 73.7675C114.346 72.6057 115.458 71.5981 116.685 70.7345C117.912 69.8709 119.253 69.1821 120.666 68.668C121.363 68.4007 122.08 68.2053 122.818 68.0306C123.556 67.8866 124.294 67.7427 125.043 67.7016C125.781 67.6193 126.54 67.6399 127.319 67.5885C128.088 67.5268 128.91 67.3829 129.606 66.9716C130.313 66.5809 130.864 65.9435 131.249 65.2649C131.633 64.5864 131.872 63.8358 132.039 63.0853C132.34 61.5637 132.309 60.0524 132.569 58.5924C132.631 58.2326 132.714 57.8625 132.818 57.5129L132.901 57.2559C132.933 57.1736 132.985 57.0914 133.016 56.9989L133.234 56.4951C133.577 55.8474 133.972 55.2202 134.45 54.6445C135.396 53.493 136.55 52.506 137.673 51.4881C138.806 50.4806 139.908 49.4113 140.76 48.1262C140.874 47.972 140.978 47.7972 141.051 47.6327C141.134 47.4682 141.238 47.2934 141.311 47.1289L141.529 46.5943C141.571 46.5018 141.613 46.4092 141.644 46.327L141.727 46.0391C141.924 45.2886 141.956 44.5175 141.945 43.767C141.893 42.2659 141.644 40.7649 141.467 39.2638C141.384 38.5236 141.301 37.7628 141.28 37.0225C141.259 36.272 141.29 35.5215 141.405 34.7812L141.353 34.7709C141.218 35.5112 141.176 36.272 141.176 37.0225C141.186 37.7833 141.249 38.5339 141.311 39.2844C141.457 40.7854 141.675 42.2865 141.706 43.7773C141.716 44.5072 141.675 45.2577 141.467 45.9774L141.394 46.2345C141.363 46.3167 141.311 46.399 141.28 46.4915L141.062 46.9953C140.978 47.1598 140.874 47.3243 140.791 47.4785C140.708 47.643 140.615 47.7972 140.5 47.9514C139.669 49.1954 138.556 50.2236 137.423 51.2208C136.301 52.2181 135.116 53.1948 134.138 54.3874C133.619 54.9632 133.213 55.6212 132.849 56.31L132.621 56.8446C132.579 56.9372 132.538 57.0297 132.506 57.1119L132.423 57.3895C132.309 57.7597 132.215 58.1503 132.153 58.5205C131.883 60.0215 131.903 61.5431 131.602 62.9928C131.446 63.7125 131.217 64.4219 130.854 65.0387C130.511 65.6762 130.012 66.2211 129.388 66.5706C128.775 66.9305 128.047 67.0641 127.309 67.1155C126.56 67.1772 125.802 67.1567 125.022 67.2286C124.253 67.2698 123.494 67.4034 122.735 67.5576C121.976 67.7427 121.238 67.938 120.51 68.2156C119.066 68.7502 117.683 69.4699 116.436 70.3644C115.188 71.2589 114.034 72.2973 113.088 73.4899C112.122 74.6825 111.373 76.0088 110.386 77.1088C109.887 77.664 109.336 78.1781 108.681 78.4865L108.442 78.6099C108.359 78.6407 108.275 78.6716 108.182 78.7024C108.016 78.7641 107.839 78.795 107.662 78.8361C107.298 78.8978 106.945 78.9081 106.571 78.8669C105.843 78.7847 105.146 78.5174 104.523 78.1061C103.909 77.6949 103.369 77.2014 102.901 76.6051C101.986 75.433 101.363 74.0656 100.666 72.7085C100.479 72.3692 100.282 72.0402 100.022 71.7421C99.7618 71.4542 99.4396 71.2074 99.0757 71.0532C98.3481 70.7242 97.5373 70.6934 96.7784 70.7654C96.0092 70.8476 95.2607 71.0841 94.5331 71.2794C93.8054 71.4748 93.0674 71.6598 92.3085 71.6701C91.5705 71.6907 90.8116 71.5159 90.1256 71.228C89.4291 70.9299 88.8054 70.5186 88.2336 70.0251C87.0902 69.0381 86.2898 67.7324 85.6141 66.3856C84.9384 65.0285 84.4186 63.6302 83.743 62.2628C83.3999 61.5843 82.9529 60.916 82.3292 60.4431C82.0174 60.2066 81.6535 60.0215 81.2897 59.9084C80.9051 59.7953 80.5205 59.7234 80.1462 59.672C79.3874 59.5589 78.6182 59.4869 77.9945 59.1271C77.6826 58.9523 77.4227 58.7055 77.2356 58.4074C77.0485 58.1092 76.9446 57.7597 76.9134 57.3998C76.8406 56.6904 76.9965 55.9502 77.2876 55.2819C77.5787 54.6136 78.0049 53.9762 78.3791 53.3285C78.7533 52.6808 79.1171 51.9714 79.2938 51.2105C79.4602 50.4395 79.4706 49.6581 79.3978 48.8973C79.3354 48.1365 79.2003 47.3962 79.0548 46.656C78.9196 45.9055 78.7741 45.1755 78.7429 44.4353C78.7013 43.7053 78.7221 42.9548 78.9196 42.2556C79.1067 41.5462 79.4706 40.9088 80.0007 40.4153C80.5413 39.9321 81.2066 39.5825 81.903 39.3358C82.5995 39.0685 83.3375 38.8628 84.0652 38.6058C84.7929 38.3488 85.5309 38.0301 86.1338 37.5571C86.7575 37.0945 87.2981 36.5701 87.8802 36.0766C88.4519 35.5934 89.0756 35.1719 89.7721 34.9252C90.4686 34.6578 91.2274 34.5139 91.9551 34.2672C93.4104 33.7839 94.7618 33.0643 96.03 32.2109C97.2982 31.3576 98.4728 30.3809 99.5851 29.363H99.5435Z" fill="#FFF666"/>
<path d="M138.764 20.3054L138.192 20.9429C137.985 21.1485 137.777 21.3335 137.538 21.498C137.07 21.8373 136.56 22.1046 136.041 22.3411C134.98 22.8038 133.879 23.1225 132.787 23.472L131.155 23.9964L130.334 24.2534C130.074 24.3356 129.783 24.4179 129.481 24.3973C129.19 24.3871 128.92 24.2328 128.691 24.0375C128.473 23.8422 128.307 23.6057 128.172 23.3487C127.912 22.8346 127.818 22.2486 127.839 21.6728C127.881 21.0971 128.016 20.5419 128.224 19.997C128.431 19.4624 128.66 18.938 128.899 18.424C129.128 17.9099 129.388 17.3856 129.7 16.9023C130.012 16.4191 130.407 15.9873 130.864 15.6275C131.789 14.9181 132.943 14.5685 134.076 14.3835C135.219 14.1984 136.373 14.1984 137.506 14.1161C138.078 14.075 138.65 14.0236 139.201 13.9311C139.752 13.8386 140.334 13.6946 140.926 13.7049C141.529 13.7049 142.163 13.89 142.61 14.3526C142.829 14.5685 142.974 14.877 143.026 15.1957C143.068 15.5041 142.985 15.8331 142.881 16.1107C142.642 16.6659 142.236 17.1183 141.862 17.5398L140.687 18.7941L139.513 20.0484C139.128 20.4802 138.702 20.8606 138.328 21.2821C137.953 21.6934 137.6 22.1149 137.33 22.6084C137.049 23.0916 136.862 23.6057 136.675 24.1403C136.488 24.6646 136.28 25.2198 135.999 25.7236C135.718 26.2274 135.365 26.7106 135.001 27.1527C134.232 28.006 133.494 28.8799 132.683 29.6921C131.883 30.5146 131.03 31.296 130.115 31.9848C129.201 32.6943 128.224 33.3008 127.205 33.8457C126.186 34.3906 125.126 34.8533 124.003 35.172C122.88 35.4805 121.685 35.6347 120.531 35.4085C119.939 35.3057 119.388 35.1 118.868 34.8225C118.359 34.5346 117.88 34.185 117.496 33.7327C117.111 33.2906 116.831 32.7559 116.685 32.1802C116.539 31.6044 116.519 31.0287 116.55 30.453C116.623 29.3015 116.82 28.1808 117.194 27.091C117.579 26.0115 118.182 24.9731 119.086 24.2328C119.98 23.472 121.061 23.0505 122.08 22.5467C122.589 22.3 123.099 22.0224 123.546 21.6831C123.993 21.3541 124.388 20.9223 124.689 20.4596C125.001 19.997 125.282 19.5035 125.583 19.01C125.895 18.5165 126.249 18.0641 126.654 17.6529C127.475 16.8201 128.494 16.2444 129.544 15.7817C130.604 15.3293 131.716 15.0003 132.818 14.7227C135.043 14.1676 137.299 13.7152 139.585 13.4684C140.168 13.4273 140.75 13.4479 141.332 13.5815C141.623 13.6432 141.893 13.746 142.153 13.9002C142.413 14.0442 142.642 14.2601 142.808 14.5171C142.964 14.7741 143.057 15.0723 143.078 15.3705C143.089 15.6789 143.037 15.977 142.933 16.2546C142.714 16.8098 142.351 17.2828 141.976 17.7043C141.592 18.1464 141.186 18.5371 140.791 18.9483C140.396 19.3698 140.001 19.7811 139.648 20.2129C138.91 21.0662 138.224 21.971 137.579 22.9066C136.935 23.8422 136.321 24.788 135.76 25.775C135.199 26.7517 134.689 27.7696 134.315 28.808C134.232 29.0547 134.211 29.3323 134.18 29.6099C134.138 29.8978 134.066 30.1959 133.962 30.4632C133.743 31.0081 133.494 31.5119 133.265 32.026L131.914 35.1515C131.456 36.2001 131.03 37.2488 130.5 38.2667C129.97 39.2845 129.305 40.2612 128.473 41.0734C126.82 42.7081 124.668 43.7774 122.434 44.3942C120.199 45.0008 117.86 45.1653 115.573 45.1756C114.429 45.1756 113.275 45.1653 112.122 45.1139C111.539 45.0934 110.957 45.0317 110.375 44.8775C109.803 44.713 109.232 44.4662 108.754 44.1064C107.766 43.4072 107.08 42.3894 106.654 41.2893C106.435 40.7444 106.29 40.179 106.217 39.5929C106.144 39.0069 106.144 38.4312 106.176 37.8554C106.259 36.6834 106.519 35.5524 106.862 34.4626C107.205 33.3625 107.61 32.3138 108.036 31.2446C108.473 30.1856 108.951 29.137 109.533 28.1397C110.105 27.1321 110.822 26.2171 111.591 25.3638C112.361 24.5104 113.223 23.7393 114.086 22.9888C114.959 22.2383 115.874 21.5392 116.81 20.8812C118.691 19.5549 120.687 18.424 122.777 17.4678C126.945 15.5555 131.446 14.3526 136.03 13.9825C137.174 13.8797 138.328 13.8694 139.471 13.8386C140.043 13.8283 140.625 13.8283 141.186 13.9722C141.477 14.0339 141.748 14.1367 141.997 14.2909C142.236 14.4451 142.475 14.6302 142.61 14.8975C142.746 15.1545 142.766 15.4733 142.694 15.7509C142.631 16.0387 142.496 16.2855 142.33 16.5322C141.987 17.0154 141.581 17.4061 141.155 17.7865C140.718 18.1669 140.292 18.5268 139.866 18.9175C139.44 19.3596 139.097 19.8016 138.764 20.3054ZM138.691 20.2335C139.066 19.7914 139.419 19.339 139.835 18.9586C140.271 18.5576 140.698 18.1978 141.124 17.8277C141.54 17.4473 141.966 17.0463 142.278 16.5836C142.423 16.3472 142.569 16.1004 142.631 15.8228C142.694 15.5555 142.683 15.2676 142.548 15.0209C142.423 14.7844 142.195 14.5994 141.956 14.4554C141.716 14.3115 141.446 14.219 141.176 14.147C140.615 14.0133 140.053 14.0133 139.481 14.0236C138.91 14.0339 138.338 14.0545 137.766 14.075C137.184 14.0956 136.612 14.1367 136.051 14.1881C131.498 14.6096 127.028 15.8434 122.912 17.8071C120.853 18.7838 118.889 19.9559 117.038 21.2616C116.113 21.9196 115.219 22.6187 114.367 23.3589C113.504 24.0889 112.672 24.8703 111.924 25.703C111.155 26.5461 110.49 27.4406 109.928 28.4173C109.367 29.3837 108.889 30.4118 108.473 31.4605C108.057 32.5195 107.652 33.5682 107.309 34.6477C106.966 35.7066 106.716 36.8067 106.643 37.9068C106.612 38.462 106.623 39.0172 106.695 39.5621C106.768 40.0967 106.903 40.6416 107.101 41.1557C107.496 42.1735 108.13 43.1194 109.024 43.7465C109.46 44.0755 109.959 44.3017 110.479 44.4456C110.999 44.5793 111.56 44.641 112.122 44.6616C113.265 44.713 114.419 44.7335 115.552 44.7335C117.818 44.7232 120.105 44.5587 122.298 43.9727C124.471 43.3764 126.55 42.3483 128.151 40.7753C128.962 40.0042 129.596 39.0789 130.115 38.0816C130.646 37.0946 131.072 36.0459 131.529 35.0075L132.912 31.8923C133.151 31.368 133.421 30.8642 133.619 30.3501C133.723 30.0931 133.795 29.8464 133.827 29.5688C133.868 29.3015 133.889 29.0033 133.982 28.7052C134.804 26.5358 136.041 24.603 137.34 22.7318C137.995 21.8065 138.712 20.9017 139.461 20.0381C139.845 19.6063 140.23 19.1848 140.625 18.7735C141.02 18.352 141.446 17.9716 141.82 17.5501C142.195 17.1388 142.538 16.6864 142.735 16.1724C142.829 15.9154 142.881 15.648 142.87 15.391C142.86 15.134 142.777 14.877 142.631 14.6508C142.351 14.1881 141.841 13.9208 141.301 13.7974C140.75 13.6741 140.188 13.6638 139.627 13.6946C137.361 13.9311 135.105 14.3526 132.891 14.9078C131.789 15.1854 130.677 15.4938 129.637 15.9462C128.598 16.3883 127.589 16.964 126.789 17.7557C126.384 18.1361 126.03 18.5885 125.739 19.0717C125.448 19.5549 125.167 20.0587 124.845 20.5316C124.533 21.0045 124.128 21.4364 123.681 21.7859C123.213 22.1252 122.704 22.4233 122.194 22.6701C121.176 23.1739 120.105 23.616 119.242 24.3459C118.379 25.0759 117.787 26.0732 117.423 27.1321C117.059 28.2014 116.883 29.3117 116.81 30.4427C116.768 30.9979 116.799 31.553 116.945 32.0979C117.09 32.6223 117.361 33.1261 117.735 33.527C118.099 33.9383 118.546 34.2878 119.034 34.5346C119.523 34.7916 120.074 34.9664 120.614 35.0692C121.716 35.2543 122.86 35.1103 123.941 34.8019C125.011 34.4832 126.051 34.0102 127.049 33.4756C128.047 32.9204 128.993 32.3138 129.897 31.625C130.791 30.9465 131.644 30.1754 132.423 29.3734C133.213 28.5818 133.951 27.6976 134.7 26.8545C135.064 26.433 135.396 25.9909 135.646 25.4974C135.906 24.9936 136.103 24.4899 136.29 23.945C136.477 23.4103 136.675 22.8654 136.976 22.3514C137.267 21.8476 137.642 21.3952 138.037 20.9737C138.421 20.5419 138.847 20.1718 139.232 19.74L140.396 18.4959L141.561 17.2519C141.945 16.8407 142.299 16.4191 142.517 15.9256C142.621 15.6892 142.673 15.4424 142.642 15.1957C142.631 14.9489 142.506 14.733 142.33 14.5377C141.966 14.1676 141.436 13.9825 140.895 13.9825C140.344 13.9722 139.783 14.0956 139.222 14.1881C138.639 14.2806 138.057 14.3321 137.486 14.3629C136.342 14.4246 135.188 14.4246 134.066 14.5891C132.953 14.7536 131.841 15.0826 130.937 15.7509C130.49 16.0799 130.105 16.5014 129.793 16.964C129.481 17.4267 129.232 17.9407 128.982 18.4445C128.504 19.4726 127.974 20.4905 127.901 21.6214C127.86 22.1663 127.953 22.7523 128.203 23.2458C128.328 23.5029 128.494 23.7291 128.702 23.9141C128.92 24.0992 129.18 24.2226 129.45 24.2534C129.731 24.2637 130.012 24.1917 130.282 24.1197L131.103 23.8627L132.735 23.3384C133.806 22.9888 134.918 22.6804 135.968 22.2177C136.488 21.9915 136.997 21.7242 137.465 21.3952C137.694 21.2307 137.901 21.0457 138.109 20.84L138.691 20.2335Z" fill="#FFF666"/>
<path d="M148.349 11.3195C148.047 12.5224 147.756 13.6945 147.579 14.8974C147.486 15.504 147.434 16.1003 147.413 16.7069C147.403 17.3135 147.424 17.9098 147.455 18.5266C147.517 19.7295 147.59 20.9736 147.403 22.197C147.236 23.4308 146.862 24.5925 146.53 25.7646C145.833 28.0881 145.563 30.5042 145.313 32.9306L144.565 40.1994C144.305 42.6155 144.107 45.0829 143.359 47.4579C142.974 48.6505 142.455 49.802 141.717 50.8198C140.979 51.8582 140.022 52.6705 139.191 53.5341C138.764 53.9556 138.38 54.4183 138.058 54.9015C137.746 55.3847 137.475 55.9296 137.268 56.4745C136.841 57.5746 136.602 58.7672 136.374 59.9598C136.134 61.1524 135.958 62.3656 135.573 63.5582C135.396 64.1545 135.168 64.7406 134.856 65.2957C134.544 65.8509 134.18 66.3753 133.744 66.8379C132.86 67.7735 131.737 68.4007 130.615 68.925C129.492 69.4391 128.338 69.8812 127.236 70.4055C125.043 71.4645 122.995 72.8113 121.165 74.4152C120.24 75.2171 119.419 76.1013 118.546 76.9649C117.683 77.8388 116.8 78.6921 115.822 79.4632C114.856 80.2446 113.806 80.9129 112.662 81.4166C112.091 81.6531 111.498 81.8793 110.906 82.0335C110.313 82.2186 109.71 82.3728 109.107 82.5167C107.912 82.8046 106.675 82.9897 105.427 83.0102C104.19 83.0205 102.943 82.8971 101.747 82.5167C101.155 82.3317 100.583 82.0849 100.032 81.7971C99.4813 81.5092 98.9719 81.1391 98.4729 80.7895C97.4646 80.1007 96.4147 79.4632 95.2816 79.0108C94.7099 78.7744 94.1278 78.6099 93.5353 78.4865C92.9427 78.3631 92.319 78.3015 91.7161 78.2089C91.1132 78.1164 90.4895 78.0239 89.8866 77.808C89.2941 77.592 88.7431 77.2733 88.2338 76.9135C87.215 76.2041 86.3315 75.3508 85.3023 74.7133C84.2732 74.0759 83.1817 73.531 82.1006 72.9244C81.0299 72.3178 79.9593 71.6598 79.0757 70.7551C78.6391 70.3027 78.2649 69.7886 77.953 69.2334C77.6515 68.6783 77.4436 68.0614 77.2981 67.4651C77.007 66.2519 76.9239 65.0284 76.7056 63.8461C76.4977 62.6638 76.0923 61.5226 75.5933 60.4328C75.0943 59.3327 74.5226 58.2429 74.0029 57.1325C73.4831 56.0221 73.0153 54.8501 72.7866 53.6163C72.6723 52.9892 72.6203 52.362 72.6515 51.7246C72.6827 51.0872 72.8178 50.46 72.9945 49.8637C73.1816 49.2571 73.4103 48.6814 73.639 48.1159L74.3563 46.4298L75.7908 43.0678L76.5081 41.3817C76.7472 40.8265 76.9759 40.2611 77.2565 39.6956C77.5476 39.1404 77.8906 38.5647 78.3792 38.102C78.8678 37.6394 79.4499 37.3207 80.0528 37.0739C81.2482 36.5907 82.4541 36.3645 83.4728 35.799C84.4915 35.2541 85.3543 34.3597 86.4146 33.6503C86.9448 33.3007 87.5581 32.9923 88.1818 32.8278C88.8159 32.653 89.45 32.6016 90.0737 32.5707C90.7078 32.5399 91.3107 32.5296 91.8928 32.4576C92.1943 32.4371 92.4854 32.3754 92.7868 32.3343C93.0779 32.2726 93.3793 32.2212 93.66 32.1389C94.8139 31.8511 95.9365 31.3987 96.9864 30.8127C98.026 30.2266 99.0031 29.5069 99.8451 28.6639C100.708 27.8517 101.373 26.8338 102.246 25.9085C102.683 25.4459 103.192 25.0244 103.754 24.7056C104.315 24.3766 104.897 24.1402 105.469 23.9037L106.321 23.5541C106.456 23.4925 106.623 23.4308 106.779 23.3794C106.935 23.328 107.101 23.2971 107.257 23.256C107.891 23.1121 108.504 23.0709 109.076 22.9373C109.367 22.8756 109.637 22.8036 109.887 22.6802L110.292 22.4952L110.677 22.2793C111.207 21.9914 111.696 21.6521 112.174 21.282C113.12 20.552 113.972 19.6884 114.804 18.794C116.456 17.0153 118.037 15.0722 120.084 13.6225C121.093 12.8926 122.247 12.3168 123.484 12.0084C124.731 11.7102 125.978 11.6999 127.215 11.6691C128.432 11.6485 129.71 11.6177 130.937 11.9158C131.529 12.0495 132.122 12.1832 132.725 12.2551C133.328 12.3271 133.92 12.3374 134.523 12.2448C135.126 12.1626 135.708 11.9878 136.29 11.813C136.883 11.6383 137.455 11.4429 138.058 11.2784C139.253 10.97 140.376 10.5382 141.571 10.1783C142.153 9.99326 142.746 9.82876 143.349 9.68482C143.941 9.55117 144.565 9.4278 145.189 9.45864C145.344 9.46892 145.511 9.48948 145.656 9.54089C145.812 9.59229 145.937 9.65398 146.083 9.71567C146.374 9.83904 146.644 9.94185 146.935 10.0755C147.517 10.3531 148.089 10.7027 148.349 11.3195ZM148.255 11.299C148.193 11.1859 148.12 11.0419 148.026 10.9288C147.943 10.8158 147.839 10.7129 147.715 10.6204C147.476 10.4354 147.205 10.2914 146.925 10.1578C146.644 10.0241 146.363 9.92129 146.072 9.8082C145.937 9.76707 145.781 9.68483 145.656 9.6437C145.511 9.60258 145.365 9.57173 145.22 9.57173C144.617 9.56145 144.004 9.68482 143.421 9.82876C142.829 9.96242 142.257 10.1578 141.665 10.3428C141.103 10.5382 140.5 10.7541 139.929 10.9494C139.638 11.0522 139.357 11.155 139.055 11.2476L138.182 11.5149C137.59 11.6897 137.018 11.8953 136.436 12.0803C135.843 12.2654 135.261 12.4402 134.627 12.543C134.003 12.6561 133.369 12.6561 132.735 12.5944C132.112 12.543 131.498 12.4196 130.895 12.2757C129.731 12.0187 128.494 12.0598 127.267 12.0906C126.041 12.1317 124.814 12.1729 123.65 12.471C122.486 12.7795 121.405 13.3244 120.438 14.0338C119.461 14.7226 118.587 15.5554 117.745 16.4498C116.903 17.3237 116.124 18.2593 115.292 19.1641C114.45 20.0688 113.587 20.9633 112.6 21.7344C112.111 22.1148 111.592 22.4849 111.041 22.7933L110.625 23.0195L110.199 23.2251C109.897 23.3794 109.575 23.4822 109.253 23.5439C108.629 23.6775 108.005 23.7392 107.444 23.8831C107.309 23.9243 107.163 23.9551 107.028 23.9962C106.883 24.0374 106.768 24.0888 106.612 24.1607C106.321 24.2944 106.041 24.3972 105.75 24.5206C105.188 24.757 104.627 24.9935 104.128 25.2814C103.629 25.5693 103.182 25.9394 102.787 26.3609C101.976 27.2142 101.29 28.2629 100.375 29.1368C99.4813 30.0416 98.4522 30.7818 97.3607 31.409C96.2484 32.0156 95.0841 32.4988 93.8471 32.8072C92.6309 33.1362 91.3315 33.2185 90.1153 33.2699C89.502 33.311 88.9198 33.3624 88.3585 33.5063C87.8076 33.64 87.2982 33.897 86.8096 34.226C85.8429 34.884 84.9697 35.7888 83.8158 36.4056C82.6516 37.0122 81.4146 37.2384 80.3231 37.6908C79.7825 37.9067 79.2732 38.1945 78.8574 38.575C78.452 38.9554 78.1401 39.4489 77.8698 39.9732C77.5996 40.5078 77.3709 41.063 77.1318 41.6285L76.4041 43.3043L74.9488 46.6046C74.4706 47.7355 73.9405 48.8356 73.5974 49.9665C73.4207 50.5525 73.3064 51.118 73.2752 51.6937C73.244 52.2798 73.2856 52.8658 73.3895 53.4415C73.5974 54.6033 74.034 55.7342 74.533 56.8343C75.0424 57.9344 75.6037 59.0242 76.0923 60.1449C76.5808 61.2655 77.007 62.4684 77.2045 63.6816C77.4125 64.9051 77.4852 66.1285 77.7451 67.2903C77.8802 67.8763 78.0673 68.4418 78.3376 68.9559C78.5975 69.4802 78.9509 69.9634 79.3771 70.3849C80.2087 71.2486 81.2482 71.9066 82.2982 72.5131C83.3585 73.1197 84.4499 73.6852 85.4998 74.3535C86.5601 75.0218 87.4437 75.8957 88.4209 76.5948C88.9094 76.9546 89.4396 77.263 89.9905 77.4687C90.5519 77.6743 91.1548 77.7771 91.7577 77.8696C92.3606 77.9519 92.9739 78.0136 93.5872 78.1575C94.2006 78.2809 94.8035 78.466 95.3752 78.7024C96.5291 79.1651 97.5998 79.8025 98.5977 80.5119C99.107 80.8717 99.5956 81.2213 100.136 81.5092C100.666 81.7971 101.228 82.0438 101.81 82.2186C102.953 82.599 104.18 82.7326 105.406 82.7018C106.623 82.6607 107.839 82.4756 109.034 82.198C110.23 81.9101 111.415 81.5914 112.538 81.1082C113.639 80.6147 114.679 79.9567 115.614 79.1856C116.56 78.4248 117.413 77.5509 118.265 76.677C119.128 75.7928 119.949 74.8984 120.874 74.0656C122.704 72.4103 124.773 71.0224 126.997 69.912C128.099 69.3568 129.263 68.9044 130.344 68.3904C131.446 67.866 132.486 67.2492 133.297 66.3958C133.702 65.964 134.035 65.4911 134.315 64.9668C134.596 64.463 134.804 63.9078 134.981 63.332C135.334 62.2011 135.532 60.9982 135.75 59.7953C135.968 58.6027 136.207 57.3792 136.644 56.2072C136.872 55.6212 137.153 55.0557 137.507 54.5108C137.87 53.9762 138.276 53.5032 138.712 53.0611C139.575 52.177 140.5 51.3853 141.197 50.4292C141.904 49.4833 142.413 48.3832 142.777 47.2523C143.515 44.9801 143.733 42.5435 144.004 40.1171L144.825 32.8586C145.105 30.4425 145.417 28.0059 146.145 25.6515C146.498 24.4897 146.862 23.3382 147.07 22.1456C147.288 20.9633 147.226 19.7398 147.184 18.5266C147.164 17.9201 147.153 17.3032 147.184 16.6966C147.226 16.09 147.288 15.4731 147.403 14.8768C147.611 13.6739 147.922 12.4916 148.255 11.299Z" fill="#FFF666"/>
<path d="M146.01 26.8336C145.895 27.7486 145.583 28.6328 145.095 29.4039C144.606 30.1956 143.951 30.8536 143.349 31.563C142.746 32.2724 142.184 33.0332 141.768 33.8659C141.353 34.6987 141.03 35.5829 140.75 36.4568C140.49 37.341 140.272 38.2663 140.251 39.2019C140.22 40.1477 140.459 41.0628 140.563 41.9675C140.625 42.4199 140.656 42.8723 140.635 43.3246C140.625 43.777 140.552 44.2191 140.438 44.6509C140.324 45.0827 140.147 45.5042 139.929 45.8846C139.689 46.265 139.388 46.594 139.045 46.8922C138.38 47.4988 137.59 48.0231 136.935 48.712C136.269 49.3802 135.719 50.1411 135.178 50.8813L133.546 53.1329L132.735 54.2638C132.454 54.6442 132.195 55.0452 131.997 55.4873C131.8 55.9499 131.716 56.4229 131.664 56.8855C131.602 57.3482 131.612 57.8211 131.602 58.2735C131.592 58.7361 131.56 59.1782 131.467 59.61C131.384 60.0418 131.207 60.4634 130.978 60.8335C130.5 61.584 129.783 62.1598 128.972 62.571C128.172 62.9823 127.278 63.2187 126.373 63.3524C125.459 63.4963 124.533 63.5374 123.598 63.6094C122.662 63.6711 121.727 63.7636 120.802 63.9281C118.951 64.2468 117.132 64.7815 115.417 65.5011C114.554 65.861 113.712 66.2825 112.891 66.7452C112.07 67.1975 111.311 67.7424 110.479 68.1434C109.658 68.5341 108.712 68.7706 107.828 68.5238C107.392 68.3902 106.986 68.1742 106.612 67.9069C106.228 67.6499 105.864 67.3518 105.469 67.105C105.074 66.8583 104.637 66.6321 104.159 66.5498C103.691 66.4676 103.192 66.5087 102.745 66.6629C102.288 66.8274 101.882 67.0742 101.508 67.362C101.134 67.6499 100.791 67.9686 100.448 68.2771C100.115 68.5855 99.7827 68.9145 99.4188 69.1921C99.055 69.48 98.6704 69.7473 98.2546 69.9529C97.8388 70.1688 97.4126 70.323 96.9552 70.395C96.4978 70.467 96.0404 70.4361 95.6038 70.323C94.7098 70.0865 93.9718 69.48 93.4001 68.7808C92.8179 68.0714 92.4021 67.2387 92.1007 66.375C91.4666 64.6478 91.0716 62.8178 90.1256 61.1728C89.1796 59.5689 87.8179 58.1809 86.1443 57.2762C85.7285 57.0603 85.2815 56.8649 84.8449 56.721C84.4083 56.5565 83.9613 56.4331 83.5767 56.2172C82.7867 55.806 82.2773 55.0143 81.9966 54.1713C81.7056 53.3179 81.612 52.4029 81.6328 51.4982C81.6432 51.2617 81.6744 51.0355 81.6952 50.8196C81.716 50.5934 81.7783 50.3775 81.8199 50.1616C81.9343 49.7298 82.1006 49.3083 82.2981 48.9073C83.1089 47.2829 84.533 46.0286 85.5518 44.435C85.8012 44.0443 86.0299 43.6331 86.2898 43.2835C86.5497 42.9237 86.8719 42.6255 87.2358 42.3788C87.9738 41.875 88.8574 41.5974 89.741 41.2992C90.1776 41.145 90.6246 40.9908 91.0612 40.8057C91.4978 40.6207 91.924 40.3945 92.3294 40.1375C93.1298 39.6337 93.8574 39.0065 94.5019 38.3177C95.7909 36.9297 96.7369 35.2745 97.5685 33.6295C97.9947 32.7967 98.3689 31.9536 98.7847 31.1414C99.2109 30.3395 99.6995 29.5684 100.25 28.8384C101.342 27.3785 102.693 26.0934 104.273 25.1783C105.074 24.7157 105.905 24.3661 106.799 24.1194C107.683 23.8726 108.598 23.6876 109.512 23.4305C110.427 23.1735 111.332 22.8137 112.111 22.2482C112.891 21.6827 113.556 21.0145 114.211 20.3668L118.161 16.4496C119.492 15.1645 120.718 13.7354 122.392 12.9335C123.203 12.5222 124.107 12.2446 125.012 12.1007C125.926 11.967 126.852 11.9773 127.777 12.111C128.691 12.2343 129.606 12.44 130.542 12.5428C130.999 12.6045 131.477 12.6353 131.945 12.625C132.413 12.6147 132.881 12.5633 133.348 12.4914C135.188 12.1932 136.945 11.5147 138.806 11.2885L138.795 11.2371C136.924 11.4221 135.157 12.0904 133.317 12.3474C132.87 12.4091 132.403 12.4605 131.945 12.4605C131.488 12.4605 131.03 12.4194 130.573 12.3474C129.658 12.2138 128.754 12.0081 127.818 11.8745C126.893 11.7306 125.937 11.6894 124.991 11.8334C124.045 11.967 123.13 12.2343 122.288 12.6456C121.425 13.0465 120.656 13.6223 119.96 14.2392C119.263 14.856 118.619 15.514 117.943 16.1617L113.962 20.048C113.296 20.6855 112.641 21.3537 111.903 21.8678C111.165 22.3819 110.313 22.7211 109.419 22.9576C108.535 23.2044 107.61 23.3791 106.695 23.6259C105.781 23.8726 104.876 24.2428 104.065 24.7157C102.413 25.6718 101.02 26.9981 99.8866 28.4992C99.3253 29.26 98.8159 30.0516 98.3793 30.8741C97.9427 31.7172 97.5789 32.5397 97.1527 33.3724C96.3107 35.0174 95.3959 36.611 94.1589 37.9476C93.5456 38.6261 92.8595 39.2224 92.0903 39.7159C91.7161 39.9524 91.3002 40.1786 90.8948 40.3534C90.479 40.5384 90.0424 40.6926 89.6058 40.8366C88.743 41.145 87.8075 41.4329 87.0071 41.9881C86.6121 42.2657 86.2378 42.6152 85.9572 42.9956C85.6661 43.376 85.4478 43.7873 85.2087 44.178C84.7201 44.9388 84.1172 45.6482 83.5351 46.3679C82.9426 47.0978 82.3708 47.8484 81.9446 48.6914C81.7367 49.1129 81.5808 49.5756 81.4561 50.028C81.4145 50.2644 81.3417 50.5009 81.3313 50.7374C81.3105 50.9738 81.2898 51.2 81.2794 51.4468C81.2482 52.3926 81.3625 53.3488 81.6744 54.2432C81.8303 54.6853 82.0382 55.1171 82.3397 55.5078C82.6307 55.8882 83.005 56.2378 83.4415 56.4537C83.8781 56.6799 84.3355 56.8135 84.7617 56.9575C85.1983 57.0911 85.6245 57.2659 86.0299 57.4818C87.6516 58.3249 88.9925 59.682 89.9281 61.2447C90.874 62.828 91.2795 64.6478 91.9447 66.375C92.267 67.2284 92.6932 68.092 93.2857 68.8117C93.8782 69.5314 94.6579 70.1585 95.583 70.4053C96.0404 70.5184 96.529 70.5492 96.9968 70.467C97.4645 70.4053 97.9115 70.2305 98.3377 70.0146C98.7535 69.7987 99.1485 69.5314 99.5124 69.2435C99.8762 68.9556 100.219 68.6369 100.552 68.3079C101.217 67.691 101.914 67.033 102.776 66.7349C103.203 66.5909 103.67 66.5498 104.117 66.6321C104.554 66.704 104.98 66.9199 105.365 67.1667C105.749 67.4134 106.113 67.7013 106.487 67.9686C106.872 68.2462 107.298 68.493 107.756 68.6266C108.223 68.75 108.702 68.7603 109.18 68.6883C109.658 68.6266 110.105 68.4416 110.531 68.2565C111.384 67.8658 112.153 67.3209 112.964 66.8788C113.774 66.4264 114.606 66.0255 115.458 65.6759C117.174 64.9871 118.972 64.473 120.791 64.1749C121.706 64.0207 122.631 63.9281 123.556 63.887C124.481 63.8253 125.427 63.8047 126.363 63.6505C127.309 63.5169 128.234 63.2804 129.086 62.8486C129.939 62.4168 130.729 61.7896 131.249 60.9774C131.509 60.5662 131.696 60.1138 131.8 59.6306C131.914 59.1576 131.924 58.6744 131.945 58.2221C131.987 57.2968 131.956 56.3715 132.309 55.5695C132.486 55.1583 132.725 54.7881 132.995 54.418L133.806 53.2974L135.427 51.0355C135.968 50.2953 136.519 49.5345 137.143 48.8867C137.766 48.2082 138.536 47.6838 139.242 47.067C139.596 46.7585 139.939 46.3884 140.188 45.9772C140.428 45.5659 140.615 45.1238 140.729 44.6509C140.843 44.1882 140.906 43.7153 140.916 43.2527C140.937 42.7797 140.875 42.3171 140.823 41.8544C140.708 40.9188 140.479 40.0347 140.49 39.1299C140.49 38.2252 140.687 37.3204 140.958 36.4465C141.228 35.5829 141.529 34.6987 141.935 33.8762C142.351 33.064 142.87 32.3032 143.452 31.5835C144.045 30.8638 144.7 30.1853 145.168 29.3833C145.656 28.5814 145.947 27.687 146.051 26.7616L146.01 26.8336Z" fill="#FFF666"/>
<path d="M31.1231 56.5979C31.8091 57.5232 32.4121 58.2018 32.9526 58.6336C33.4932 59.0654 34.148 59.4663 34.9277 59.857V59.929H30.3019V59.4972L25.333 52.6808H25.0939H21.8506V58.4896C21.8506 59.2093 22.4951 59.6514 23.7945 59.8056V59.929H17.3184V59.8056C18.6177 59.6617 19.2622 59.2196 19.2518 58.4896V43.6847C19.2518 42.965 18.6074 42.523 17.3184 42.379V42.2454H26.2789C28.3892 42.2454 30.042 42.6463 31.227 43.438C32.4121 44.2296 33.0046 45.3811 33.0046 46.8925C33.0046 48.2084 32.5576 49.3497 31.6532 50.3367C30.7488 51.3134 29.5222 51.9919 27.963 52.362L31.1231 56.5979ZM21.8506 51.6629C23.1812 52.033 24.5118 52.2181 25.8631 52.2181C27.516 52.2181 28.6906 51.9097 29.3975 51.3031C30.1043 50.6862 30.4474 49.5347 30.4474 47.828C30.4474 47.1186 30.385 46.4915 30.2499 45.9466C30.1147 45.4017 29.8653 44.8671 29.491 44.3427C29.1168 43.8184 28.5451 43.4174 27.7654 43.1295C26.9858 42.8417 26.0295 42.6977 24.8964 42.6977H21.861V51.6629H21.8506Z" fill="#0C2340"/>
<path d="M36.7676 49.2776C38.0046 48.1056 39.5846 47.5195 41.5285 47.5195C43.4724 47.5195 45.0525 48.1056 46.2895 49.2673C47.5265 50.4291 48.1398 51.9404 48.1398 53.8116C48.1398 55.6622 47.5265 57.1736 46.2895 58.3456C45.0525 59.5177 43.4724 60.1037 41.5285 60.1037C39.5846 60.1037 38.0046 59.528 36.7676 58.3662C35.5305 57.2044 34.9172 55.6931 34.9172 53.8116C34.9172 51.961 35.5409 50.4497 36.7676 49.2776ZM42.5161 59.6822C43.5244 59.6822 44.304 59.3018 44.8757 58.5513C45.4475 57.8007 45.7281 56.7726 45.7281 55.4669C45.7281 53.5957 45.2396 51.8788 44.252 50.316C43.2645 48.743 42.0275 47.9616 40.5202 47.9616C39.5119 47.9616 38.7322 48.342 38.1605 49.0926C37.5888 49.8431 37.3081 50.8712 37.3081 52.1769C37.3081 54.0481 37.8071 55.765 38.7946 57.3278C39.7821 58.8905 41.0296 59.6822 42.5161 59.6822Z" fill="#0C2340"/>
<path d="M57.7135 47.6839H61.6429V47.7867C61.1855 47.9512 60.7905 48.2288 60.4474 48.6195C60.1044 49.0101 59.7198 49.7195 59.2728 50.7477L54.7925 61.3064C54.5638 61.8102 54.3975 62.1803 54.2831 62.4065C54.1688 62.643 53.9921 62.9617 53.7322 63.3524C53.4723 63.7431 53.2228 64.0515 52.9629 64.2366C52.7031 64.4319 52.3704 64.6067 51.965 64.7506C51.5596 64.9048 51.1022 64.9768 50.5929 64.9768L49.6261 63.8562C51.9546 63.8562 53.5139 62.9514 54.2935 61.1522L54.6677 60.2783L49.6989 49.3905L48.7529 47.6736H53.9817V47.7764C52.3081 47.982 51.8715 48.9587 52.6615 50.6963L55.7904 57.6463L58.7842 50.6963C59.0129 50.1822 59.1376 49.7401 59.1584 49.3803C59.1792 49.0204 59.1065 48.7325 58.9297 48.5269C58.753 48.3213 58.5763 48.1671 58.41 48.0745C58.2437 47.982 58.0046 47.8792 57.7135 47.7867V47.6839Z" fill="#0C2340"/>
<path d="M73.7846 57.8521C73.7846 58.5307 73.8573 59.0139 73.9925 59.3223C74.1276 59.6308 74.3979 59.8981 74.7825 60.1448V60.2271L70.8012 59.4354C70.8219 59.4354 70.822 59.4251 70.822 59.4149C69.9592 59.8672 68.9404 60.0934 67.7866 60.0934C65.9674 60.0934 64.4913 59.5794 63.3479 58.541C62.2044 57.5026 61.6431 56.094 61.6431 54.2948C61.6431 52.3517 62.3291 50.7375 63.7013 49.4524C65.0735 48.1672 67.0277 47.5195 69.5537 47.5195C71.113 47.5195 72.5267 47.828 73.7846 48.4551V57.8521ZM64.1171 52.9377C64.1171 54.7575 64.6057 56.2894 65.5932 57.5334C66.5807 58.7774 67.797 59.4046 69.2627 59.4046C70.1255 59.4046 70.8323 59.1064 71.3833 58.5204C71.4145 58.1811 71.4353 57.8521 71.4353 57.5334V49.4113C70.5517 48.486 69.5018 48.013 68.2751 48.013C66.9758 48.013 65.9674 48.4654 65.2294 49.3599C64.4913 50.2543 64.1171 51.4367 64.1171 52.9377Z" fill="#0C2340"/>
<path d="M79.824 57.4718C79.824 58.212 79.9176 58.7569 80.1047 59.0962C80.2918 59.4458 80.6868 59.6822 81.2793 59.8262V59.929H77.246L77.4747 58.3662V43.2735C77.4747 42.8005 77.3292 42.5538 77.0277 42.5229C76.7367 42.4921 76.1961 42.6052 75.4165 42.8828V42.7183L79.9488 40.6003L79.824 41.5873V57.4718Z" fill="#0C2340"/>
<path d="M97.5168 41.8958C100.24 41.8958 102.517 42.7285 104.357 44.4044C106.197 46.0802 107.112 48.3009 107.112 51.0768C107.112 53.8528 106.197 56.0838 104.357 57.7596C102.517 59.4354 100.24 60.2785 97.5168 60.2785C94.7725 60.2785 92.4856 59.4354 90.6561 57.7596C88.8161 56.0838 87.9014 53.8528 87.9014 51.0768C87.9014 48.3009 88.8161 46.0699 90.6561 44.4044C92.4856 42.7285 94.7725 41.8958 97.5168 41.8958ZM98.5356 59.8261C100.292 59.8261 101.696 59.1579 102.756 57.811C103.816 56.4642 104.346 54.7267 104.346 52.5676C104.346 50.8609 104.014 49.2365 103.348 47.6738C102.683 46.111 101.737 44.8362 100.511 43.8389C99.284 42.8416 97.9534 42.3584 96.4669 42.3584C94.7102 42.3584 93.3068 43.0267 92.2465 44.3632C91.1862 45.6998 90.6561 47.4373 90.6561 49.5758C90.6561 51.2825 90.9887 52.9069 91.654 54.4799C92.3193 56.0529 93.2652 57.3278 94.4919 58.3354C95.7081 59.3224 97.0595 59.8261 98.5356 59.8261Z" fill="#0C2340"/>
<path d="M117.849 47.6839H121.768V47.7867C121.311 47.9512 120.916 48.2288 120.573 48.6195C120.23 49.0101 119.845 49.7195 119.398 50.7477L114.918 61.3064C114.689 61.8102 114.523 62.1803 114.409 62.4065C114.294 62.643 114.118 62.9617 113.858 63.3524C113.598 63.7431 113.348 64.0515 113.088 64.2366C112.829 64.4319 112.496 64.6067 112.091 64.7506C111.685 64.9048 111.228 64.9768 110.718 64.9768L109.752 63.8562C112.08 63.8562 113.639 62.9514 114.419 61.1522L114.793 60.2783L109.824 49.3905L108.878 47.6736H114.107V47.7764C112.434 47.982 111.997 48.9587 112.787 50.6963L115.916 57.6463L118.91 50.6963C119.138 50.1822 119.263 49.7401 119.284 49.3803C119.305 49.0204 119.232 48.7325 119.055 48.5269C118.879 48.3213 118.702 48.1671 118.536 48.0745C118.369 47.982 118.13 47.8792 117.839 47.7867L117.849 47.6839Z" fill="#0C2340"/>
<path d="M127.319 60.0935C125.324 60.0935 123.692 59.6 122.423 58.613L123.847 56.2586H123.899C123.879 57.2867 124.336 58.1195 125.272 58.7569C126.197 59.3944 127.215 59.7234 128.297 59.7234C129.856 59.7234 130.635 58.9934 130.635 57.5437C130.635 56.7521 130.365 56.1661 129.835 55.7651C129.295 55.3744 128.504 55.0865 127.455 54.9118C126.519 54.7678 125.719 54.5416 125.074 54.2538C124.419 53.9659 123.931 53.6369 123.608 53.2668C123.286 52.8966 123.057 52.5368 122.933 52.177C122.808 51.8171 122.735 51.4573 122.735 51.0666C122.735 49.9768 123.193 49.1029 124.107 48.4655C125.022 47.828 126.186 47.499 127.579 47.499C128.504 47.499 129.378 47.6327 130.209 47.9103C131.041 48.1776 131.717 48.5271 132.226 48.9487L130.615 51.3236H130.563C130.615 50.2955 130.22 49.4627 129.378 48.8356C128.536 48.1981 127.631 47.8897 126.665 47.8897C125.906 47.8897 125.355 48.0953 125.022 48.5169C124.689 48.9384 124.523 49.4216 124.523 49.9871C124.523 50.789 124.835 51.3853 125.448 51.7554C126.072 52.1256 126.883 52.3929 127.881 52.5368C130.916 53.0097 132.423 54.2229 132.413 56.1969C132.413 57.3381 131.956 58.2737 131.041 58.9934C130.116 59.7336 128.879 60.0935 127.319 60.0935Z" fill="#0C2340"/>
<path d="M136.883 60.3301L135.001 59.703L135.074 58.1813V46.1626C135.074 45.6589 134.928 45.3915 134.627 45.3401C134.326 45.299 133.764 45.4121 132.933 45.6794V45.5355L137.631 43.3867L137.423 44.4251V47.6843H140.511L140.386 48.2908H137.423V59.4768L140.511 59.374V59.4768L137.423 60.3404H136.883V60.3301Z" fill="#0C2340"/>
<path d="M153.183 57.3997L153.307 57.5025C152.902 58.2428 152.205 58.8597 151.218 59.3634C150.23 59.8569 149.108 60.114 147.85 60.114C146.01 60.114 144.482 59.5793 143.245 58.4998C142.008 57.4203 141.395 55.9604 141.395 54.1097C141.395 52.1358 142.091 50.5525 143.474 49.3393C144.856 48.1364 146.519 47.5298 148.453 47.5298C150.324 47.5298 151.686 48.1261 152.538 49.3084C153.151 50.1618 153.297 50.9945 152.975 51.8068C152.663 52.547 152.06 52.9171 151.156 52.9171H143.869C143.889 54.6649 144.357 56.1146 145.282 57.2661C146.207 58.4176 147.424 58.9933 148.941 58.9933C149.7 58.9933 150.511 58.8494 151.363 58.5718C152.226 58.2942 152.829 57.9035 153.183 57.3997ZM147.548 47.9719C146.499 47.9719 145.636 48.3728 144.981 49.1748C144.316 49.9767 143.962 51.0871 143.889 52.4956L150.158 52.4236C150.646 52.4236 150.906 52.0741 150.927 51.3852C150.948 50.5113 150.615 49.7094 149.929 48.9794C149.295 48.3112 148.505 47.9719 147.548 47.9719Z" fill="#0C2340"/>
<path d="M162.028 47.5403C162.507 47.5403 162.954 47.6431 163.39 47.8487L161.197 51.3854H161.093C161.384 50.5424 161.446 49.9358 161.29 49.5451C161.124 49.1544 160.812 48.9591 160.355 48.9591C159.742 48.9591 159.222 49.2881 158.806 49.9358C158.39 50.5835 158.12 51.3957 157.985 52.3519V57.585C157.985 58.2636 158.058 58.7571 158.193 59.0758C158.328 59.3945 158.598 59.6824 158.983 59.9291H155.511L155.635 58.1916V48.4862C155.261 48.2497 154.741 48.0955 154.076 48.0338V47.931L158.109 47.5506L157.985 49.4217V50.234H158.307C158.598 49.432 159.076 48.774 159.752 48.2805C160.428 47.787 161.186 47.5403 162.028 47.5403Z" fill="#0C2340"/>
<path d="M43.4722 14.1881C41.7674 14.1881 40.2601 14.2703 38.9607 14.4246C37.651 14.5788 36.4971 14.9078 35.5096 15.4115C34.5116 15.9153 33.6281 16.635 32.838 17.5912C32.048 18.5473 31.3203 19.8119 30.6655 21.4055C30.6031 21.5289 30.5303 21.57 30.4576 21.5186C30.3744 21.4672 30.312 21.3541 30.2393 21.169C30.5199 20.326 30.8526 19.5035 31.2372 18.7118C31.6114 17.9202 32.048 17.1799 32.5366 16.5116C33.0251 15.8434 33.5657 15.2676 34.1686 14.805C34.7715 14.332 35.4264 14.0442 36.1541 13.9208C36.9441 13.7666 37.8277 13.6946 38.8048 13.7049C39.782 13.7254 40.7591 13.7254 41.7362 13.7254C42.651 13.7254 43.5658 13.7357 44.4805 13.746C45.3953 13.7666 46.3101 13.7666 47.2249 13.7666H49.2623C51.7883 13.7357 53.805 13.3142 55.3122 12.502C55.78 12.2552 56.2582 11.8748 56.726 11.3813C57.1938 10.8775 57.4328 10.3326 57.4328 9.74662C57.4328 9.5924 57.4121 9.47931 57.3809 9.41762C57.3497 9.38678 57.3289 9.34565 57.3289 9.27368C57.3289 9.15031 57.3809 9.08862 57.4744 9.08862C57.5056 9.08862 57.5576 9.11947 57.62 9.18115C57.9942 9.5924 58.2852 9.99337 58.4724 10.3943C58.5659 10.5177 58.6179 10.7028 58.6179 10.9598C58.6179 11.1449 58.5555 11.371 58.4308 11.6178C57.8902 12.4917 57.1002 13.1188 56.0399 13.489C54.9796 13.8591 53.701 14.0853 52.1833 14.147C51.6428 14.1778 51.0814 14.1881 50.4785 14.1675C49.8756 14.147 49.3455 14.1572 48.8673 14.1881C48.4203 14.1881 48.098 14.3423 47.8694 14.661C46.1022 17.3136 44.4702 19.9044 42.9733 22.4336C41.4764 24.9628 40.1146 27.3377 38.888 29.5482C38.6073 30.0828 38.3786 30.566 38.2019 31.0184C38.0252 31.4708 37.9212 31.882 37.8901 32.2624C37.8901 32.5091 37.9212 32.7559 37.9836 32.9924C38.046 33.2288 38.1915 33.4345 38.4098 33.599C38.6281 33.7737 38.9504 33.9074 39.3766 34.0205C39.8028 34.1336 40.3641 34.185 41.0502 34.185C41.2061 34.185 41.3932 34.185 41.6219 34.185C41.8506 34.185 42.0273 34.1747 42.1936 34.1336C42.2872 34.257 42.2456 34.3803 42.0481 34.5037C41.5076 34.5654 40.915 34.6065 40.2497 34.6168C39.5845 34.6271 38.9711 34.6374 38.4098 34.6374C37.9316 34.6374 37.4846 34.6271 37.0584 34.6168C36.6322 34.5962 36.258 34.5345 35.9254 34.4317C35.5927 34.3186 35.3225 34.1541 35.125 33.9382C34.9171 33.7223 34.8131 33.4036 34.8131 33.0026C34.8131 32.7559 34.8755 32.468 35.0002 32.1596C35.125 31.8512 35.3017 31.5222 35.52 31.1726C36.3724 29.7949 37.2248 28.3967 38.098 26.9573C38.9608 25.518 39.8131 24.0991 40.6552 22.6701C41.4868 21.2513 42.2976 19.8633 43.0876 18.5062C43.8776 17.1491 44.6053 15.8434 45.2602 14.5993C45.4161 14.3217 45.3433 14.1778 45.0211 14.1778L43.4722 14.1881Z" fill="#0C2340"/>
<path d="M78.1815 3.50588C78.1815 4.00966 78.1607 4.37978 78.1087 4.62653C78.0567 4.87328 78.0151 5.04806 77.9632 5.14059C77.9112 5.23312 77.8696 5.25368 77.8176 5.21256C77.7656 5.16115 77.7449 5.10975 77.7449 5.04806C77.7449 4.83216 77.6929 4.534 77.5785 4.1536C77.4642 3.78348 77.2459 3.41335 76.9133 3.05351C76.5806 2.69367 76.1128 2.38523 75.5203 2.11792C74.9174 1.85061 74.1482 1.71696 73.2022 1.71696C72.381 1.71696 71.539 1.83005 70.6762 2.06652C69.8134 2.30298 68.8674 2.75536 67.8591 3.42363C66.8508 4.09191 65.7697 5.0275 64.6158 6.20983C63.462 7.39217 62.2146 8.93435 60.8528 10.8158C59.5014 12.7075 58.0253 15.0002 56.4349 17.6939C54.8444 20.3979 53.0981 23.585 51.2061 27.2657C51.4244 27.0806 51.7779 26.7928 52.2457 26.4226C52.7238 26.0525 53.2436 25.6721 53.8049 25.302C54.3766 24.9319 54.9276 24.6029 55.4577 24.315C55.9983 24.0374 56.4557 23.8935 56.8299 23.8935C57.1106 23.8935 57.2561 24.0066 57.2561 24.2225C57.2561 24.4075 57.1106 24.6954 56.8299 25.0655C56.5804 25.4356 56.2478 25.9497 55.832 26.6077C55.4266 27.2657 55.0211 27.9648 54.6261 28.7153C54.2311 29.4659 53.8985 30.1958 53.6074 30.9155C53.3267 31.6352 53.1812 32.2109 53.1812 32.6428C53.1812 33.1465 53.306 33.5167 53.5554 33.7634C53.8049 34.0102 54.1584 34.1335 54.5949 34.1335C55.3226 34.1335 56.3413 33.6606 57.6719 32.725C59.0025 31.7894 60.5098 30.1958 62.2146 27.9545C62.2769 27.8928 62.3393 27.862 62.4017 27.862C62.464 27.862 62.4952 27.9237 62.4952 28.0471C61.8923 28.8901 61.1958 29.7332 60.3954 30.5762C59.595 31.4193 58.7738 32.1801 57.9318 32.8689C57.1002 33.5578 56.2582 34.113 55.4266 34.5345C54.5949 34.956 53.8257 35.1719 53.1292 35.1719C52.5887 35.1719 52.1625 35.028 51.8506 34.7298C51.5388 34.4317 51.3725 34.0204 51.3725 33.4858C51.3725 32.982 51.5492 32.3446 51.8922 31.5632C52.2353 30.7819 52.6303 29.9902 53.0565 29.1986C53.4827 28.4069 53.8673 27.6667 54.2103 26.9984C54.5534 26.3301 54.7301 25.8469 54.7301 25.5693C54.7301 25.4151 54.6781 25.3328 54.5845 25.3328C54.3039 25.3328 53.7841 25.6001 53.0461 26.1245C52.308 26.6591 51.3829 27.6564 50.281 29.1163C49.834 29.8977 49.387 30.7099 48.9088 31.5529C48.4306 32.396 48.0252 33.1465 47.6822 33.8045C47.4327 34.3083 47.1936 34.5551 46.9753 34.5551C46.8194 34.5551 46.6115 34.5139 46.362 34.442C46.1125 34.3597 45.9878 34.2158 45.9878 33.9999C45.9878 33.8457 46.0398 33.6709 46.1333 33.4858C47.4535 31.1109 48.7529 28.8696 50.0107 26.7722C51.2685 24.6646 52.5471 22.598 53.8361 20.5726C55.3538 18.2285 56.9131 15.8433 58.5451 13.4067C60.1667 10.97 61.8299 8.75957 63.5347 6.75474C65.2395 4.76019 66.9651 3.12548 68.7115 1.86089C70.4579 0.596309 72.2562 0 74.0234 0C74.46 0 74.9174 0.0514059 75.3956 0.164499C75.8737 0.277592 76.3207 0.452372 76.7469 0.69912C77.1731 0.945869 77.5162 1.29543 77.7864 1.7478C78.0567 2.21045 78.1815 2.79648 78.1815 3.50588Z" fill="#0C2340"/>
<path d="M71.8511 28.7874C71.3105 29.4454 70.6764 30.124 69.9384 30.8231C69.2003 31.5222 68.3895 32.1699 67.5267 32.7457C66.6639 33.3214 65.7595 33.7944 64.8344 34.1542C63.8988 34.514 62.984 34.6888 62.0693 34.6888C60.5828 34.6888 59.8447 34.0308 59.8447 32.7251C59.8447 31.8512 60.0734 30.9054 60.5308 29.8875C60.9882 28.8697 61.5807 27.9341 62.3084 27.0807C63.036 26.2274 63.826 25.5077 64.6992 24.932C65.562 24.3562 66.3936 24.0684 67.1837 24.0684C67.6203 24.0684 67.9321 24.1506 68.1088 24.3048C68.2855 24.459 68.3687 24.6647 68.3687 24.9114C68.3687 25.2815 68.2544 25.6928 68.0153 26.1246C67.7762 26.5667 67.4227 26.9779 66.955 27.3686C66.4768 27.7593 65.8843 28.0883 65.1566 28.3556C64.429 28.6229 63.5662 28.7566 62.5578 28.7566C62.4019 29.0342 62.2252 29.4865 62.0381 30.0931C61.851 30.6997 61.7574 31.3166 61.7574 31.9438C61.7574 33.2289 62.3396 33.8663 63.5038 33.8663C64.2315 33.8663 64.9799 33.6916 65.7491 33.3523C66.5184 33.013 67.2668 32.5812 67.9945 32.0671C68.7221 31.5531 69.3874 30.9876 70.0007 30.381C70.614 29.7744 71.1234 29.1987 71.5392 28.6743C71.6016 28.6126 71.6743 28.6024 71.7575 28.6229C71.8095 28.6332 71.8511 28.6949 71.8511 28.7874ZM66.8822 25.1376C66.8822 24.7366 66.6743 24.531 66.2689 24.531C65.957 24.531 65.6348 24.6441 65.3022 24.8806C64.9695 25.117 64.6473 25.4152 64.3354 25.7956C64.0236 26.1657 63.7221 26.577 63.4414 27.0088C63.1608 27.4509 62.9217 27.8724 62.7346 28.2734C62.7969 28.3042 62.9113 28.3248 63.0672 28.3453C63.2231 28.3659 63.3479 28.3659 63.4414 28.3659C64.3562 28.3659 65.1566 28.0472 65.8531 27.4097C66.5392 26.7723 66.8822 26.0115 66.8822 25.1376Z" fill="#0C2340"/>
<path d="M198.172 26.875C198.172 27.3788 198.151 27.7181 198.12 27.8826C198.089 28.0471 198.016 28.0882 197.912 27.9854C197.746 27.8209 197.517 27.6256 197.226 27.4096C196.935 27.1937 196.436 27.0806 195.719 27.0806C195.106 27.0806 194.544 27.1115 194.035 27.1835C193.526 27.2554 193.006 27.3891 192.476 27.5844C191.946 27.79 191.395 28.0676 190.823 28.4172C190.241 28.7668 189.596 29.25 188.889 29.8566C187.871 30.6996 186.769 31.9334 185.573 33.5681C184.388 35.2028 183.182 36.9814 181.977 38.9143C180.771 40.8471 179.627 42.8109 178.536 44.8157C177.444 46.8205 176.498 48.6094 175.677 50.1825C175.407 50.7171 175.105 51.3545 174.783 52.0742C174.461 52.7939 174.17 53.5238 173.92 54.2435C173.661 54.9632 173.453 55.6418 173.286 56.2586C173.12 56.8858 173.026 57.3382 173.026 57.6466C173.026 58.5513 173.328 59.0037 173.941 59.0037C174.315 59.0037 174.742 58.8289 175.22 58.4691C175.698 58.1195 176.155 57.6158 176.592 56.9578C177.029 56.2998 177.403 55.4978 177.715 54.5417C178.016 53.5855 178.172 52.4957 178.172 51.2928C178.172 50.8919 178.151 50.5629 178.099 50.3058C178.047 50.0488 177.985 49.8432 177.923 49.6787C177.923 49.4731 178.027 49.2777 178.224 49.0721C178.359 48.9384 178.525 48.7739 178.733 48.5889C178.941 48.4038 179.128 48.2599 179.295 48.1571C179.399 48.1571 179.461 48.1879 179.503 48.2599C179.503 48.9282 179.627 49.4936 179.887 49.946C180.137 50.3984 180.469 50.7685 180.854 51.0564C181.249 51.3442 181.665 51.5499 182.133 51.6835C182.59 51.8172 183.027 51.8891 183.432 51.8891C184.014 51.8891 184.638 51.7966 185.313 51.6115C185.989 51.4265 186.686 51.118 187.403 50.676C187.569 50.5731 187.684 50.5834 187.736 50.6965C187.788 50.8096 187.725 50.9021 187.559 50.9741C186.467 51.5499 185.48 51.9611 184.575 52.2387C183.671 52.506 182.839 52.6397 182.049 52.6397C181.405 52.6397 180.823 52.4957 180.293 52.2078C179.763 51.92 179.367 51.591 179.097 51.2209C179.097 52.4957 178.889 53.6575 178.463 54.6959C178.037 55.7343 177.517 56.6185 176.914 57.3484C176.301 58.0681 175.636 58.6336 174.929 59.0346C174.212 59.4355 173.567 59.6411 172.995 59.6411C172.455 59.6411 171.997 59.4766 171.644 59.1374C171.29 58.7981 171.114 58.284 171.114 57.5746C171.114 57.04 171.228 56.382 171.467 55.6109C171.706 54.8398 171.997 54.0585 172.361 53.2668C172.715 52.4752 173.078 51.7246 173.453 50.9947C173.827 50.275 174.128 49.689 174.367 49.2572C175.282 47.571 176.27 45.8644 177.32 44.1166C178.37 42.3688 179.482 40.6415 180.656 38.9246C181.831 37.2076 183.068 35.5523 184.378 33.9588C185.688 32.3652 187.07 30.895 188.526 29.5481C188.931 29.178 189.451 28.7462 190.074 28.2321C190.698 27.7284 191.374 27.2451 192.091 26.7928C192.808 26.3404 193.526 25.96 194.253 25.6618C194.981 25.3637 195.657 25.2095 196.27 25.2095C196.883 25.2095 197.351 25.374 197.673 25.6927C198.016 26.0114 198.172 26.4124 198.172 26.875Z" fill="#0C2340"/>
<path d="M201.135 52.4033C200.355 53.3492 199.493 54.295 198.567 55.2512C197.632 56.2073 196.686 57.0709 195.74 57.8523C194.794 58.6234 193.848 59.2506 192.912 59.7132C191.977 60.1861 191.124 60.4226 190.334 60.4226C189.659 60.4226 189.181 60.2581 188.91 59.9188C188.64 59.5796 188.505 59.158 188.505 58.6543C188.505 58.1813 188.65 57.5542 188.941 56.7625C189.233 55.9709 189.659 55.1278 190.241 54.2128C189.804 54.7885 189.285 55.3951 188.713 56.0325C188.131 56.67 187.538 57.256 186.925 57.7701C186.312 58.2944 185.698 58.7262 185.095 59.0861C184.482 59.4356 183.941 59.6207 183.463 59.6207C182.746 59.6207 182.393 59.2711 182.393 58.5617C182.393 57.7906 182.694 56.8139 183.307 55.6316C183.921 54.4595 184.742 53.3183 185.781 52.2285C186.821 51.1387 187.996 50.1928 189.326 49.4012C190.646 48.6095 192.029 48.2188 193.453 48.2188C193.619 47.8795 193.775 47.6431 193.91 47.5094C194.045 47.3758 194.181 47.273 194.316 47.2113L195.74 46.8103L195.844 46.8617C195.678 47.0262 195.511 47.2421 195.355 47.4889C195.199 47.7459 195.043 48.0029 194.867 48.2702C195.033 48.2702 195.293 48.2908 195.636 48.3216C195.979 48.3525 196.228 48.3936 196.405 48.4245C196.571 48.4964 196.665 48.5787 196.665 48.6815C196.665 48.7843 196.613 48.8357 196.509 48.8357C196.301 48.7637 196 48.7226 195.594 48.6815C195.189 48.6506 194.877 48.6301 194.68 48.6301C193.12 51.3546 191.966 53.5136 191.239 55.1072C190.511 56.7008 190.147 57.8934 190.147 58.6645C190.147 58.9627 190.22 59.2197 190.376 59.4253C190.532 59.631 190.844 59.7235 191.322 59.7235C191.863 59.7235 192.507 59.5282 193.255 59.1477C194.004 58.7571 194.804 58.2224 195.646 57.5336C196.499 56.8448 197.372 56.0428 198.266 55.1381C199.17 54.2333 200.023 53.2772 200.844 52.2593C200.917 52.1565 200.979 52.136 201.052 52.1874C201.093 52.2182 201.135 52.3005 201.135 52.4033ZM193.183 48.5684C192.029 48.5684 190.927 48.9694 189.867 49.7816C188.817 50.5835 187.881 51.5397 187.06 52.6295C186.249 53.7193 185.594 54.8091 185.095 55.8783C184.607 56.9579 184.357 57.7392 184.357 58.2533C184.357 58.5206 184.461 58.6543 184.659 58.6543C184.867 58.6543 185.178 58.5206 185.605 58.2533C186.031 57.986 186.509 57.6261 187.06 57.1738C187.601 56.7214 188.151 56.1868 188.713 55.5905C189.274 54.9839 189.794 54.3259 190.272 53.6267C190.813 52.8248 191.343 51.9612 191.852 51.0564C192.361 50.1517 192.819 49.3395 193.224 48.6404L193.183 48.5684Z" fill="#0C2340"/>
<path d="M209.43 49.0208C209.222 49.2572 209.014 49.5451 208.796 49.8741C208.578 50.2134 208.432 50.4601 208.359 50.6349C208.328 50.7377 208.255 50.7891 208.151 50.7891C208.12 50.7891 208.068 50.7377 207.995 50.6349C207.923 50.5321 207.829 50.4293 207.715 50.3059C207.6 50.1928 207.434 50.0797 207.226 49.9769C207.018 49.8741 206.738 49.8227 206.363 49.8227C205.916 49.8227 205.428 49.9769 204.887 50.2751C204.347 50.5732 203.869 50.9125 203.463 51.2826C202.819 51.8172 202.247 52.4136 201.758 53.051C201.27 53.6884 200.802 54.3567 200.355 55.0455C199.918 55.7344 199.492 56.4438 199.076 57.1635C198.671 57.8831 198.224 58.6234 197.756 59.3534C197.725 59.4562 197.621 59.5076 197.455 59.5076C197.382 59.5076 197.247 59.4048 197.018 59.2094C196.8 59.0038 196.686 58.8599 196.686 58.7571C196.686 58.5514 196.8 58.2533 197.039 57.8523C197.58 56.9064 198.13 55.9606 198.692 55.0044C199.253 54.0483 199.783 53.1435 200.272 52.3107C200.76 51.4677 201.197 50.7377 201.571 50.1209C201.945 49.504 202.195 49.0413 202.34 48.7329C202.507 48.4347 202.632 48.2805 202.694 48.2805C202.767 48.2805 202.933 48.3628 203.203 48.5375C203.474 48.702 203.609 48.9385 203.609 49.2469C203.609 49.3498 203.546 49.5143 203.432 49.7507C203.318 49.9872 203.182 50.2339 203.027 50.4807C202.871 50.7377 202.725 50.9742 202.59 51.2107C202.455 51.4471 202.351 51.6116 202.289 51.7144C202.185 51.8789 202.174 51.9715 202.237 51.9715C202.299 51.9715 202.392 51.9201 202.486 51.8172C202.829 51.478 203.245 51.1078 203.733 50.7069C204.222 50.3059 204.742 49.9255 205.293 49.5759C205.833 49.2264 206.374 48.9282 206.894 48.6918C207.424 48.4553 207.891 48.3422 208.297 48.3422C208.598 48.3422 208.869 48.4142 209.087 48.5684C209.326 48.6918 209.43 48.8563 209.43 49.0208Z" fill="#0C2340"/>
<path d="M221 72.8627H0V33.1362H24.5325V34.1746H1.04991V71.8243H219.95V34.1746H78.3479V33.1362H221V72.8627Z" fill="#0C2340"/>
</g>
<defs>
<clipPath id="clip0_206:103">
<rect width="221" height="83" fill="white"/>
</clipPath>
</defs>
</svg>
