<svg width="28" height="19" viewBox="0 0 28 19" fill="none" xmlns="http://www.w3.org/2000/svg">
<path d="M27.5504 17.3718C27.5504 18.2713 26.8213 19.0004 25.9219 19.0004H1.62854C0.729118 19.0005 0 18.2713 0 17.3718V1.62908C0 0.72966 0.729118 0.000488281 1.62854 0.000488281H25.9219C26.8214 0.000488281 27.5504 0.72966 27.5504 1.62908V17.3718Z" fill="#306FC5"/>
<path opacity="0.15" d="M1.15782 17.3718V1.62908C1.15782 0.72966 1.88704 0.000488281 2.78647 0.000488281H1.62849C0.729118 0.000488281 0 0.729606 0 1.62908V17.3718C0 18.2713 0.729118 19.0005 1.62854 19.0005H2.78652C1.8871 19.0005 1.15782 18.2713 1.15782 17.3718Z" fill="#202121"/>
<path d="M4.01343 7.60364H4.8366L4.42512 6.55597L4.01343 7.60364Z" fill="white"/>
<path d="M8.39136 11.1208V11.6073H9.77582V12.1313H8.39136V12.6926H9.92541L10.6363 11.9067L9.96286 11.1208H8.39136Z" fill="white"/>
<path d="M19.2044 6.55597L18.7554 7.60364H19.6161L19.2044 6.55597Z" fill="white"/>
<path d="M12.3947 12.9914V10.8587L11.4219 11.9065L12.3947 12.9914Z" fill="white"/>
<path d="M14.2282 11.4577C14.1907 11.2332 14.0409 11.1208 13.8163 11.1208H13.0308V11.7943H13.854C14.0784 11.7944 14.2282 11.6822 14.2282 11.4577Z" fill="white"/>
<path d="M16.8472 11.72C16.922 11.6825 16.9596 11.5701 16.9596 11.4581C16.997 11.3086 16.922 11.2336 16.8472 11.1961C16.7725 11.1587 16.6601 11.1587 16.548 11.1587H15.7996V11.7574H16.548C16.6601 11.7574 16.7725 11.7574 16.8472 11.72Z" fill="white"/>
<path d="M22.2349 5.58322V6.03221L22.0105 5.58322H20.2522V6.03221L20.0276 5.58322H17.6329C17.2214 5.58322 16.8845 5.65812 16.5853 5.80777V5.58322H14.9017V5.62067V5.80777C14.7146 5.65818 14.4901 5.58322 14.1908 5.58322H8.16683L7.75508 6.51864L7.3436 5.58322H5.9967H5.43541V6.03221L5.24832 5.58322H5.21086H3.60202L2.85358 7.34171L1.99311 9.2499L1.97729 9.28741H1.99311H3.90136H3.92525L3.93881 9.2499L4.16341 8.68878H4.64979L4.87429 9.28741H7.0442V9.2499V8.83842L7.23141 9.28735H8.31637L8.50335 8.83842V9.2499V9.28741H9.36393H13.6668H13.7042V8.31453H13.7793C13.854 8.31453 13.854 8.31453 13.854 8.42683V9.24996H16.548V9.02546C16.7725 9.13787 17.109 9.24996 17.558 9.24996H18.6807L18.9051 8.65143H19.4288L19.6533 9.24996H21.8233V8.87587V8.68883L22.1602 9.24996H22.2349H22.2724H23.9187V5.58322H22.235H22.2349V5.58322ZM9.55113 8.72628H9.17689H8.95245V8.50195V6.66834L8.915 6.75417V6.75315L8.04458 8.72628H8.01702H7.81691H7.49314L6.59522 6.66834V8.72628H5.32316L5.06127 8.16505H3.789L3.52706 8.72628H2.86935L3.97621 6.10711H4.91152L5.95914 8.61393V6.10711H6.18358H6.95042L6.96806 6.14461H6.96936L7.44143 7.17205L7.78042 7.94185L7.79242 7.90305L8.5407 6.10716H9.55108V8.72628H9.55113V8.72628ZM12.1329 6.66834H10.6736V7.15473H12.0955V7.67851H10.6736V8.2025H12.1329V8.76357H10.0376V6.10716H12.1329V6.66834ZM14.8016 7.63315C14.8026 7.63401 14.8038 7.6346 14.805 7.6354C14.8191 7.65036 14.8312 7.66538 14.8416 7.67974C14.9132 7.7737 14.9712 7.91344 14.9741 8.11834C14.9743 8.1219 14.9745 8.12539 14.9747 8.12894C14.9747 8.13099 14.9751 8.13277 14.9751 8.13486C14.9751 8.13605 14.975 8.13696 14.975 8.13809C14.9758 8.1587 14.9764 8.17974 14.9764 8.2025V8.72634H14.4152V8.42689C14.4152 8.27724 14.4152 8.0527 14.3028 7.90305C14.2675 7.8677 14.2317 7.8444 14.1927 7.82783C14.1367 7.79151 14.0304 7.79091 13.854 7.79091H13.1803V8.72634H12.5444V6.10716H13.9663C14.3028 6.10716 14.5274 6.10716 14.7146 6.21941C14.8979 6.3295 15.0086 6.51208 15.0128 6.8012C15.0042 7.19939 14.7486 7.41785 14.5648 7.49152C14.5648 7.49152 14.6897 7.51665 14.8016 7.63315ZM16.0615 8.72628H15.4254V6.10711H16.0615V8.72628ZM23.3577 8.72628H22.5344L21.3371 6.74314V8.38944L21.3332 8.38556V8.7279H20.7011V8.72634H20.065L19.8405 8.1651H18.5308L18.3063 8.76363H17.5954C17.2963 8.76363 16.9219 8.68889 16.6975 8.46439C16.473 8.2399 16.3609 7.94056 16.3609 7.45423C16.3609 7.08009 16.4356 6.70569 16.6975 6.40645C16.8844 6.1818 17.2213 6.10716 17.6328 6.10716H18.2316V6.66834H17.6328C17.4083 6.66834 17.2963 6.70563 17.1463 6.81809C17.0343 6.93029 16.9594 7.15473 16.9594 7.41662C16.9594 7.71601 16.9968 7.90305 17.1463 8.0527C17.2588 8.16511 17.4084 8.20256 17.5954 8.20256H17.8573L18.7178 6.14472H19.0921H19.6533L20.701 8.65154V8.52369V7.67861V7.60387V6.14478H21.6364L22.7212 7.97806V6.14478H23.3576V8.72639H23.3577V8.72628Z" fill="white"/>
<path d="M14.268 7.19823C14.2789 7.18655 14.2888 7.17331 14.2972 7.15814C14.3311 7.10449 14.37 7.00785 14.349 6.87596C14.3482 6.86385 14.346 6.85266 14.3434 6.84185C14.3427 6.83883 14.3428 6.8362 14.342 6.83318L14.3416 6.83324C14.323 6.76915 14.2755 6.72976 14.2281 6.70587C14.153 6.66858 14.0408 6.66858 13.9286 6.66858H13.1802V7.26732H13.9286C14.0408 7.26732 14.1531 7.26732 14.2281 7.22981C14.2393 7.22411 14.2493 7.21636 14.2589 7.20759L14.2591 7.20807C14.2591 7.20802 14.2629 7.20404 14.268 7.19823Z" fill="white"/>
<path d="M25.5649 12.468C25.5649 12.2061 25.4902 11.9441 25.378 11.7571V10.0735H25.3763V9.96104C25.3763 9.96104 23.808 9.96104 23.5746 9.96104C23.3412 9.96104 23.0581 10.1855 23.0581 10.1855V9.96104H21.3371C21.075 9.96104 20.7385 10.0359 20.5886 10.1855V9.96104H17.5206V10.0735V10.1854C17.2963 9.9985 16.8844 9.96099 16.6975 9.96099H14.677V10.0734V10.1854C14.4899 9.99844 14.0407 9.96094 13.8161 9.96094H11.5715L11.0476 10.5222L10.5611 9.96094H10.4045H10.1496H7.19385V10.0733V10.3689V13.7401H10.4864L11.0274 13.199L11.4964 13.7401H11.534H13.4312H13.5172H13.5546H13.5918V13.366V12.8796H13.779C14.0407 12.8796 14.3776 12.8796 14.6395 12.7672V13.7025V13.7775H16.3233V13.7025V12.8047H16.3979C16.5103 12.8047 16.5103 12.8047 16.5103 12.9169V13.7025V13.7775H21.5987C21.9357 13.7775 22.2722 13.7025 22.4593 13.5529V13.7025V13.7775H24.0683C24.4048 13.7775 24.7418 13.7401 24.9663 13.5904C25.3108 13.3837 25.5279 13.0178 25.5602 12.5815C25.5617 12.5686 25.5636 12.5557 25.5648 12.5427L25.5626 12.5406C25.564 12.5164 25.5649 12.4925 25.5649 12.468ZM13.7791 12.2436H13.0306V12.3556V12.5802V12.8047V13.2163H11.8008L11.085 12.3931L11.0825 12.3958L11.0476 12.3556L10.2244 13.2163H7.82987V10.5972H10.2619L10.9263 11.325L11.066 11.4774L11.085 11.4578L11.8708 10.5973H13.8538C14.2386 10.5973 14.6696 10.6923 14.8329 11.0838C14.8525 11.1614 14.864 11.2476 14.864 11.3455C14.864 12.0938 14.3401 12.2436 13.7791 12.2436ZM17.5206 12.2061C17.5954 12.3181 17.6328 12.468 17.6328 12.6926V13.2162H16.9968V12.8796C16.9968 12.7297 16.9968 12.468 16.8844 12.3556C16.8098 12.2436 16.6599 12.2436 16.4356 12.2436H15.7622V13.2163H15.1262V10.5598H16.5479C16.847 10.5598 17.1089 10.5598 17.2963 10.6719C17.4832 10.7843 17.6328 10.9714 17.6328 11.2707C17.6328 11.6822 17.371 11.9067 17.1839 11.9816C17.371 12.0562 17.4832 12.1312 17.5206 12.2061ZM20.1024 11.1208H18.643V11.6072H20.0648V12.1312H18.643V12.6551H20.1024V13.2162H18.0071V10.5597H20.1024V11.1208ZM21.6737 13.2163H20.4764V12.6551H21.6737C21.7858 12.6551 21.8608 12.6551 21.9358 12.5802C21.9733 12.5427 22.0104 12.468 22.0104 12.3931C22.0104 12.3181 21.9733 12.2436 21.9358 12.2061C21.8982 12.1687 21.8233 12.1313 21.7111 12.1313C21.1124 12.0938 20.4015 12.1313 20.4015 11.3082C20.4015 10.934 20.626 10.5224 21.2996 10.5224H22.5342V11.1584H21.3744C21.2622 11.1584 21.1873 11.1584 21.1124 11.1958C21.0377 11.2333 21.0377 11.3082 21.0377 11.383C21.0377 11.4953 21.1124 11.5327 21.1872 11.5698C21.2622 11.6073 21.337 11.6073 21.4117 11.6073H21.7485C22.0853 11.6073 22.3097 11.6822 22.4594 11.8319C22.5717 11.9442 22.6465 12.1313 22.6465 12.3931C22.6465 12.9542 22.3098 13.2163 21.6737 13.2163ZM24.8915 12.9542C24.742 13.1041 24.48 13.2163 24.1057 13.2163H22.9086V12.6551H24.1056C24.2179 12.6551 24.2929 12.6551 24.3677 12.5802C24.405 12.5427 24.4425 12.468 24.4425 12.3931C24.4425 12.3181 24.405 12.2436 24.3677 12.2061C24.3302 12.1687 24.2555 12.1313 24.1432 12.1313C23.5447 12.0938 22.8336 12.1313 22.8336 11.3083C22.8336 10.9526 23.0371 10.6314 23.5388 10.536C23.5988 10.5277 23.6622 10.5224 23.7316 10.5224H24.9665V11.1584H24.1432H23.8439H23.8065C23.6942 11.1584 23.6194 11.1584 23.5447 11.1958C23.507 11.2333 23.4696 11.3082 23.4696 11.383C23.4696 11.4953 23.507 11.5327 23.6194 11.5698C23.6942 11.6073 23.769 11.6073 23.8439 11.6073H23.8811H24.1806C24.3441 11.6073 24.4677 11.6275 24.5809 11.6673C24.6845 11.7048 25.0276 11.8583 25.1044 12.2589C25.111 12.3008 25.1159 12.3446 25.1159 12.3931C25.1159 12.6177 25.0411 12.8047 24.8915 12.9542Z" fill="white"/>
</svg>
