<svg width="32" height="19" viewBox="0 0 32 19" fill="none" xmlns="http://www.w3.org/2000/svg">
<path d="M31.6667 9.50046C31.6667 14.728 27.4445 19.0004 22.1667 19.0004C16.9392 19.0004 12.6667 14.728 12.6667 9.50046C12.6667 4.27296 16.889 0.000488281 22.1165 0.000488281C27.4445 0.000488281 31.6667 4.27296 31.6667 9.50046Z" fill="#FFB600"/>
<path d="M22.1667 0.000488281C27.3942 0.000488281 31.6667 4.27296 31.6667 9.50046C31.6667 14.728 27.4445 19.0004 22.1667 19.0004C16.9392 19.0004 12.6667 14.728 12.6667 9.50046" fill="#F7981D"/>
<path d="M22.1665 0.000488281C27.394 0.000488281 31.6665 4.27296 31.6665 9.50046C31.6665 14.728 27.4443 19.0004 22.1665 19.0004" fill="#FF8500"/>
<path d="M9.39945 0.000579834C4.22221 0.0508443 0 4.27306 0 9.50056C0 14.7281 4.22221 19.0005 9.49998 19.0005C11.9629 19.0005 14.1746 18.0455 15.8836 16.5376C16.2354 16.236 16.537 15.8841 16.8386 15.5323H14.8783C14.6269 15.2307 14.3756 14.8788 14.1746 14.5773H17.5423C17.7433 14.2757 17.9444 13.9238 18.0952 13.572H13.6217C13.4709 13.2704 13.3201 12.9185 13.2195 12.5667H18.447C18.7486 11.6117 18.9497 10.6064 18.9497 9.55082C18.9497 8.84712 18.8492 8.19368 18.7486 7.54024H12.918C12.9682 7.18839 13.0688 6.88681 13.1693 6.53495H18.3968C18.2963 6.1831 18.1455 5.83125 17.9947 5.52967H13.5714C13.7222 5.17782 13.9232 4.87623 14.1243 4.52438H17.492C17.291 4.17253 17.0396 3.82068 16.7381 3.51909H14.8783C15.1799 3.16724 15.4814 2.86565 15.8333 2.56407C14.1746 1.00587 11.9127 0.101109 9.44971 0.101109C9.44971 0.000579737 9.44971 0.000579834 9.39945 0.000579834Z" fill="#FF5050"/>
<path d="M0 9.50043C0 14.7279 4.22221 19.0004 9.49998 19.0004C11.9629 19.0004 14.1746 18.0454 15.8836 16.5375C16.2354 16.2359 16.537 15.884 16.8386 15.5322H14.8783C14.6269 15.2306 14.3756 14.8787 14.1746 14.5771H17.5423C17.7433 14.2756 17.9444 13.9237 18.0952 13.5718H13.6217C13.4709 13.2703 13.3201 12.9184 13.2195 12.5666H18.447C18.7486 11.6115 18.9497 10.6062 18.9497 9.5507C18.9497 8.84699 18.8492 8.19356 18.7486 7.54012H12.918C12.9682 7.18827 13.0688 6.88668 13.1693 6.53483H18.3968C18.2963 6.18298 18.1455 5.83113 17.9947 5.52954H13.5714C13.7222 5.17769 13.9232 4.8761 14.1243 4.52425H17.492C17.291 4.1724 17.0396 3.82055 16.7381 3.51896H14.8783C15.1799 3.16711 15.4814 2.86553 15.8333 2.56394C14.1746 1.00574 11.9127 0.100983 9.44971 0.100983H9.39945" fill="#E52836"/>
<path d="M9.49994 19.0004C11.9629 19.0004 14.1745 18.0454 15.8835 16.5375C16.2354 16.2359 16.537 15.884 16.8386 15.5322H14.8782C14.6269 15.2306 14.3756 14.8787 14.1745 14.5771H17.5423C17.7433 14.2756 17.9444 13.9237 18.0952 13.5718H13.6216C13.4708 13.2703 13.32 12.9184 13.2195 12.5666H18.447C18.7486 11.6115 18.9497 10.6062 18.9497 9.5507C18.9497 8.84699 18.8491 8.19356 18.7486 7.54012H12.9179C12.9682 7.18827 13.0687 6.88668 13.1692 6.53483H18.3967C18.2962 6.18298 18.1454 5.83113 17.9946 5.52954H13.5714C13.7222 5.17769 13.9232 4.8761 14.1243 4.52425H17.492C17.2909 4.1724 17.0396 3.82055 16.738 3.51896H14.8782C15.1798 3.16711 15.4814 2.86553 15.8333 2.56394C14.1745 1.00574 11.9126 0.100983 9.44968 0.100983H9.39941" fill="#CB2026"/>
<path d="M12.8678 11.913L13.0186 11.0585C12.9684 11.0585 12.8678 11.1087 12.7673 11.1087C12.4154 11.1087 12.3652 10.9077 12.4154 10.8071L12.717 9.04788H13.2699L13.4207 8.09286H12.9181L13.0186 7.48969H12.0133C12.0133 7.48969 11.4102 10.8071 11.4102 11.2093C11.4102 11.8124 11.762 12.0637 12.2144 12.0637C12.516 12.0637 12.7673 11.9632 12.8678 11.913Z" fill="white"/>
<path d="M13.2195 10.3047C13.2195 11.7121 14.1745 12.064 14.9787 12.064C15.7327 12.064 16.0343 11.9132 16.0343 11.9132L16.2353 10.9581C16.2353 10.9581 15.6824 11.2095 15.1798 11.2095C14.074 11.2095 14.275 10.4052 14.275 10.4052H16.3359C16.3359 10.4052 16.4867 9.75179 16.4867 9.50047C16.4867 8.84703 16.1348 8.0428 15.029 8.0428C13.9734 7.94227 13.2195 9.04809 13.2195 10.3047ZM14.9787 8.84703C15.5316 8.84703 15.4311 9.50047 15.4311 9.55073H14.3253C14.3253 9.50047 14.4258 8.84703 14.9787 8.84703Z" fill="white"/>
<path d="M21.3624 11.9131L21.5635 10.8072C21.5635 10.8072 21.0609 11.0586 20.709 11.0586C20.0053 11.0586 19.7037 10.5057 19.7037 9.90249C19.7037 8.69614 20.3069 8.0427 21.0106 8.0427C21.5132 8.0427 21.9154 8.34429 21.9154 8.34429L22.0661 7.28874C22.0661 7.28874 21.463 7.03741 20.9101 7.03741C19.754 7.03741 18.5979 8.0427 18.5979 9.95275C18.5979 11.2094 19.2011 12.0639 20.4074 12.0639C20.8095 12.0639 21.3624 11.9131 21.3624 11.9131Z" fill="white"/>
<path d="M7.33852 7.94196C6.63481 7.94196 6.13217 8.14301 6.13217 8.14301L5.98138 8.99751C5.98138 8.99751 6.43376 8.79645 7.08719 8.79645C7.43904 8.79645 7.74063 8.84672 7.74063 9.1483C7.74063 9.34936 7.69037 9.39962 7.69037 9.39962C7.69037 9.39962 7.38878 9.39962 7.23799 9.39962C6.38349 9.39962 5.42847 9.75147 5.42847 10.9076C5.42847 11.8123 6.03164 12.0134 6.38349 12.0134C7.08719 12.0134 7.38878 11.561 7.43904 11.561L7.38878 11.9631H8.29354L8.69565 9.19857C8.69565 7.99222 7.69037 7.94196 7.33852 7.94196ZM7.53957 10.2039C7.53957 10.3546 7.43904 11.1589 6.83587 11.1589C6.53428 11.1589 6.43376 10.9076 6.43376 10.7568C6.43376 10.5054 6.58455 10.1536 7.33852 10.1536C7.48931 10.2039 7.53957 10.2039 7.53957 10.2039Z" fill="white"/>
<path d="M9.65071 12.0134C9.90203 12.0134 11.1586 12.0636 11.1586 10.7065C11.1586 9.44989 9.9523 9.70121 9.9523 9.19857C9.9523 8.94725 10.1534 8.84672 10.5052 8.84672C10.656 8.84672 11.2089 8.89698 11.2089 8.89698L11.3597 7.99222C11.3597 7.99222 11.0079 7.89169 10.4047 7.89169C9.65071 7.89169 8.89674 8.19328 8.89674 9.19857C8.89674 10.3547 10.1534 10.2541 10.1534 10.7065C10.1534 11.0081 9.8015 11.0584 9.55018 11.0584C9.0978 11.0584 8.64542 10.9076 8.64542 10.9076L8.49463 11.8123C8.54489 11.9128 8.79622 12.0134 9.65071 12.0134Z" fill="white"/>
<path d="M29.7064 7.13794L29.5053 8.49508C29.5053 8.49508 29.1032 7.99244 28.5503 7.99244C27.6455 7.99244 26.8413 9.09825 26.8413 10.4051C26.8413 11.2094 27.2434 12.0639 28.0979 12.0639C28.7011 12.0639 29.0529 11.6617 29.0529 11.6617L29.0027 12.0136H30.008L30.7619 7.1882L29.7064 7.13794ZM29.254 9.80195C29.254 10.3549 29.0027 11.0586 28.4498 11.0586C28.0979 11.0586 27.8969 10.757 27.8969 10.2543C27.8969 9.4501 28.2487 8.94746 28.7011 8.94746C29.0529 8.94746 29.254 9.19878 29.254 9.80195Z" fill="white"/>
<path d="M1.85981 11.9633L2.46298 8.34429L2.56351 11.9633H3.26721L4.57409 8.34429L4.02118 11.9633H5.07673L5.88096 7.13794H4.22224L3.21695 10.1035L3.16668 7.13794H1.70902L0.904785 11.9633H1.85981Z" fill="white"/>
<path d="M17.4418 11.9631C17.7433 10.3043 17.7936 8.94721 18.4973 9.19853C18.5978 8.54509 18.7486 8.29377 18.8492 8.04245C18.8492 8.04245 18.7989 8.04245 18.6481 8.04245C18.1957 8.04245 17.8439 8.64562 17.8439 8.64562L17.9444 8.09271H16.9894L16.3359 12.0133H17.4418V11.9631Z" fill="white"/>
<path d="M23.6747 7.94196C22.971 7.94196 22.4684 8.14301 22.4684 8.14301L22.3176 8.99751C22.3176 8.99751 22.7699 8.79645 23.4234 8.79645C23.7752 8.79645 24.0768 8.84672 24.0768 9.1483C24.0768 9.34936 24.0265 9.39962 24.0265 9.39962C24.0265 9.39962 23.725 9.39962 23.5742 9.39962C22.7197 9.39962 21.7646 9.75147 21.7646 10.9076C21.7646 11.8123 22.3678 12.0134 22.7197 12.0134C23.4234 12.0134 23.725 11.561 23.7752 11.561L23.725 11.9631H24.6297L25.0318 9.19857C25.0821 7.99222 24.0265 7.94196 23.6747 7.94196ZM23.926 10.2039C23.926 10.3546 23.8255 11.1589 23.2223 11.1589C22.9207 11.1589 22.8202 10.9076 22.8202 10.7568C22.8202 10.5054 22.971 10.1536 23.725 10.1536C23.8758 10.2039 23.8758 10.2039 23.926 10.2039Z" fill="white"/>
<path d="M25.8861 11.9631C26.1877 10.3043 26.2379 8.94721 26.9416 9.19853C27.0422 8.54509 27.193 8.29377 27.2935 8.04245C27.2935 8.04245 27.2432 8.04245 27.0924 8.04245C26.6401 8.04245 26.2882 8.64562 26.2882 8.64562L26.3887 8.09271H25.4337L24.7803 12.0133H25.8861V11.9631Z" fill="white"/>
<path d="M11.3096 11.2093C11.3096 11.8124 11.6614 12.0637 12.1138 12.0637C12.4657 12.0637 12.7672 11.9632 12.8678 11.913L13.0186 11.0585C12.9683 11.0585 12.8678 11.1087 12.7672 11.1087C12.4154 11.1087 12.3651 10.9077 12.4154 10.8071L12.717 9.04788H13.2699L13.4207 8.09286H12.918L13.0186 7.48969" fill="#DCE5E5"/>
<path d="M13.7222 10.3047C13.7222 11.7121 14.1745 12.064 14.9788 12.064C15.7327 12.064 16.0343 11.9132 16.0343 11.9132L16.2354 10.9581C16.2354 10.9581 15.6825 11.2095 15.1798 11.2095C14.074 11.2095 14.2751 10.4052 14.2751 10.4052H16.3359C16.3359 10.4052 16.4867 9.75179 16.4867 9.50047C16.4867 8.84703 16.1349 8.0428 15.029 8.0428C13.9735 7.94227 13.7222 9.04809 13.7222 10.3047ZM14.9788 8.84703C15.5317 8.84703 15.6322 9.50047 15.6322 9.55073H14.3253C14.3253 9.50047 14.4259 8.84703 14.9788 8.84703Z" fill="#DCE5E5"/>
<path d="M21.3622 11.9131L21.5633 10.8072C21.5633 10.8072 21.0607 11.0586 20.7088 11.0586C20.0051 11.0586 19.7035 10.5057 19.7035 9.90249C19.7035 8.69614 20.3067 8.0427 21.0104 8.0427C21.513 8.0427 21.9151 8.34429 21.9151 8.34429L22.0659 7.28874C22.0659 7.28874 21.4628 7.03741 20.9099 7.03741C19.7538 7.03741 19.1003 8.0427 19.1003 9.95275C19.1003 11.2094 19.2009 12.0639 20.4072 12.0639C20.8093 12.0639 21.3622 11.9131 21.3622 11.9131Z" fill="#DCE5E5"/>
<path d="M5.98138 9.04774C5.98138 9.04774 6.43376 8.84668 7.08719 8.84668C7.43904 8.84668 7.74063 8.89694 7.74063 9.19853C7.74063 9.39959 7.69037 9.44985 7.69037 9.44985C7.69037 9.44985 7.38878 9.44985 7.23799 9.44985C6.38349 9.44985 5.42847 9.80171 5.42847 10.9578C5.42847 11.8625 6.03164 12.0636 6.38349 12.0636C7.08719 12.0636 7.38878 11.6112 7.43904 11.6112L7.38878 12.0133H8.29354L8.69565 9.2488C8.69565 8.09271 7.69037 8.04245 7.28825 8.04245L5.98138 9.04774ZM8.04222 10.2038C8.04222 10.3546 7.43904 11.1588 6.83587 11.1588C6.53428 11.1588 6.43376 10.9075 6.43376 10.7567C6.43376 10.5054 6.58455 10.1536 7.33852 10.1536C7.48931 10.2038 8.04222 10.2038 8.04222 10.2038Z" fill="#DCE5E5"/>
<path d="M8.54492 11.9128C8.54492 11.9128 8.84651 12.0134 9.701 12.0134C9.95233 12.0134 11.2089 12.0636 11.2089 10.7065C11.2089 9.44989 10.0026 9.70121 10.0026 9.19857C10.0026 8.94725 10.2036 8.84672 10.5555 8.84672C10.7063 8.84672 11.2592 8.89698 11.2592 8.89698L11.41 7.99222C11.41 7.99222 11.0581 7.89169 10.455 7.89169C9.701 7.89169 9.44968 8.19328 9.44968 9.19857C9.44968 10.3547 10.2036 10.2541 10.2036 10.7065C10.2036 11.0081 9.8518 11.0584 9.60048 11.0584" fill="#DCE5E5"/>
<path d="M29.5051 8.49505C29.5051 8.49505 29.103 7.9924 28.5501 7.9924C27.6453 7.9924 27.3437 9.09822 27.3437 10.4051C27.3437 11.2093 27.2432 12.0638 28.0977 12.0638C28.7009 12.0638 29.0527 11.6617 29.0527 11.6617L29.0025 12.0136H30.0077L30.7617 7.18817L29.5051 8.49505ZM29.4548 9.80192C29.4548 10.3548 29.0025 11.0585 28.4496 11.0585C28.0977 11.0585 27.8966 10.7569 27.8966 10.2543C27.8966 9.45007 28.2485 8.94743 28.7009 8.94743C29.0527 8.94743 29.4548 9.19875 29.4548 9.80192Z" fill="#DCE5E5"/>
<path d="M1.85981 11.9633L2.46298 8.34429L2.56351 11.9633H3.26721L4.57409 8.34429L4.02118 11.9633H5.07673L5.88096 7.13794H4.62435L3.21695 10.1035L3.16668 7.13794H2.61378L0.904785 11.9633H1.85981Z" fill="#DCE5E5"/>
<path d="M16.3862 11.9631H17.4418C17.7434 10.3043 17.7936 8.94721 18.4973 9.19853C18.5979 8.54509 18.7487 8.29377 18.8492 8.04245C18.8492 8.04245 18.7989 8.04245 18.6481 8.04245C18.1957 8.04245 17.8439 8.64562 17.8439 8.64562L17.9444 8.09271" fill="#DCE5E5"/>
<path d="M22.3176 9.04774C22.3176 9.04774 22.7699 8.84668 23.4234 8.84668C23.7752 8.84668 24.0768 8.89694 24.0768 9.19853C24.0768 9.39959 24.0265 9.44985 24.0265 9.44985C24.0265 9.44985 23.725 9.44985 23.5742 9.44985C22.7197 9.44985 21.7646 9.80171 21.7646 10.9578C21.7646 11.8625 22.3678 12.0636 22.7197 12.0636C23.4234 12.0636 23.725 11.6112 23.7752 11.6112L23.725 12.0133H24.6297L25.0318 9.2488C25.0318 8.09271 24.0265 8.04245 23.6244 8.04245L22.3176 9.04774ZM24.3784 10.2038C24.3784 10.3546 23.7752 11.1588 23.1721 11.1588C22.8705 11.1588 22.7699 10.9075 22.7699 10.7567C22.7699 10.5054 22.9207 10.1536 23.6747 10.1536C23.8758 10.2038 24.3784 10.2038 24.3784 10.2038Z" fill="#DCE5E5"/>
<path d="M24.8308 11.9631H25.8864C26.1879 10.3043 26.2382 8.94721 26.9419 9.19853C27.0424 8.54509 27.1932 8.29377 27.2938 8.04245C27.2938 8.04245 27.2435 8.04245 27.0927 8.04245C26.6403 8.04245 26.2885 8.64562 26.2885 8.64562L26.389 8.09271" fill="#DCE5E5"/>
</svg>
