<svg width="28" height="20" viewBox="0 0 28 20" fill="none" xmlns="http://www.w3.org/2000/svg">
<path d="M28 17.6553C28 18.5694 27.259 19.3105 26.3449 19.3105H1.65512C0.741016 19.3105 0 18.5694 0 17.6553V1.65566C0 0.741504 0.741016 0.000488281 1.65512 0.000488281H26.3449C27.259 0.000488281 28 0.741559 28 1.65566V17.6553Z" fill="white"/>
<path d="M6.21458 9.76654L5.55712 6.61266C5.44474 6.17773 5.11771 6.04834 4.70909 6.03122H1.69482L1.66797 6.17532C4.01565 6.74445 5.56905 8.11744 6.21458 9.76654Z" fill="#F79F1A"/>
<path d="M13.1991 6.09491H11.2515L10.0352 13.2331H11.9795L13.1991 6.09491Z" fill="#059BBF"/>
<path d="M7.40162 13.2257L10.4647 6.09958H8.40344L6.49796 10.9683L6.29458 10.2332C5.92106 9.34884 4.85356 8.07598 3.60034 7.2747L5.34214 13.2281L7.40162 13.2257Z" fill="#059BBF"/>
<path d="M18.7541 10.8994C18.7613 10.089 18.241 9.47087 17.1197 8.96031C16.4382 8.63054 16.0228 8.41064 16.0278 8.07601C16.0278 7.78037 16.3796 7.4628 17.1417 7.4628C17.7794 7.45301 18.2386 7.59224 18.5977 7.7364L18.7737 7.81706L19.0376 6.27067C18.6516 6.12646 18.0481 5.97256 17.2933 5.97256C15.3707 5.97256 14.0173 6.94004 14.0051 8.32763C13.9928 9.35373 14.9726 9.92538 15.7103 10.2673C16.4676 10.6159 16.7216 10.839 16.7168 11.1517C16.7119 11.6298 16.1133 11.8479 15.5539 11.8479C14.7746 11.8479 14.3617 11.7404 13.7214 11.4736L13.4725 11.3593L13.1992 12.9589C13.6533 13.1574 14.4936 13.3308 15.3658 13.338C17.4104 13.338 18.7394 12.3829 18.7541 10.8994Z" fill="#059BBF"/>
<path d="M21.0674 12.163C21.2897 12.163 23.2758 12.1655 23.5593 12.1655C23.6179 12.414 23.7962 13.2354 23.7962 13.2354H25.6015L24.0258 6.10211H22.5234C22.0568 6.10211 21.71 6.22915 21.5047 6.69323L18.6147 13.2354H20.6596C20.6595 13.2354 20.9916 12.3561 21.0674 12.163ZM22.4011 8.70622C22.3915 8.72575 22.5625 8.29339 22.6602 8.02465L22.792 8.64021C22.792 8.64021 23.1635 10.3455 23.2416 10.7022H21.6268C21.788 10.2918 22.4011 8.70622 22.4011 8.70622Z" fill="#059BBF"/>
<path d="M26.3449 0.000488281H1.65512C0.741016 0.000488281 0 0.741504 0 1.65566V3.3735H28V1.65566C28 0.741504 27.259 0.000488281 26.3449 0.000488281Z" fill="#059BBF"/>
<path d="M26.3449 19.3102H1.65512C0.741016 19.3102 0 18.5692 0 17.6551V15.9372H28V17.6551C28 18.5692 27.259 19.3102 26.3449 19.3102Z" fill="#F79F1A"/>
<path opacity="0.15" d="M1.17671 17.6553V1.65566C1.17671 0.741504 1.91778 0.000488281 2.83194 0.000488281H1.65506C0.741016 0.000488281 0 0.741504 0 1.65566V17.6553C0 18.5695 0.741016 19.3105 1.65512 19.3105H2.83199C1.91784 19.3105 1.17671 18.5694 1.17671 17.6553Z" fill="#202121"/>
</svg>
