<svg width="24" height="24" viewBox="0 0 24 24" fill="none" xmlns="http://www.w3.org/2000/svg">
<path d="M14.5739 11.6534C14.5739 10.0309 13.2759 8.73285 11.6534 8.73285C10.0309 8.73285 8.73285 10.0309 8.73285 11.6534C8.73285 13.2759 10.0309 14.5739 11.6534 14.5739C13.2759 14.5739 14.5739 13.2759 14.5739 11.6534ZM16.0882 11.6534C16.0882 14.1412 14.1412 16.0882 11.6534 16.0882C9.16552 16.0882 7.21852 14.1412 7.21852 11.6534C7.21852 9.16552 9.16552 7.21852 11.6534 7.21852C14.1412 7.21852 16.0882 9.16552 16.0882 11.6534ZM17.2781 7.00218C17.2781 7.65118 16.8454 8.08385 16.1964 8.08385C15.5474 8.08385 15.1147 7.65118 15.1147 7.00218C15.1147 6.35318 15.5474 5.92051 16.1964 5.92051C16.8454 5.92051 17.2781 6.46135 17.2781 7.00218ZM11.6534 4.51434C10.3554 4.51434 7.65118 4.40617 6.56951 4.83884C5.81234 5.16334 5.16334 5.81234 4.94701 6.56951C4.51434 7.65118 4.62251 10.3554 4.62251 11.6534C4.62251 12.9514 4.51434 15.6555 4.94701 16.7372C5.16334 17.4944 5.81234 18.1434 6.56951 18.3597C7.65118 18.7924 10.4635 18.6842 11.6534 18.6842C12.8432 18.6842 15.6555 18.7924 16.7372 18.3597C17.4944 18.0352 18.0352 17.4944 18.3597 16.7372C18.7924 15.5474 18.6842 12.8432 18.6842 11.6534C18.6842 10.4635 18.7924 7.65118 18.3597 6.56951C18.1434 5.81234 17.4944 5.16334 16.7372 4.94701C15.6555 4.40617 12.9514 4.51434 11.6534 4.51434ZM20.3067 11.6534V15.2229C20.3067 16.5209 19.8741 17.8189 18.9006 18.9006C17.9271 19.8741 16.6291 20.3067 15.2229 20.3067H8.08385C6.78585 20.3067 5.48784 19.8741 4.40617 18.9006C3.54084 17.9271 3 16.6291 3 15.2229V11.6534V8.08385C3 6.67768 3.54084 5.37968 4.40617 4.40617C5.48784 3.54084 6.78585 3 8.08385 3H15.2229C16.5209 3 17.8189 3.43267 18.9006 4.40617C19.7659 5.37968 20.3067 6.67768 20.3067 8.08385V11.6534Z" fill="white"/>
</svg>
