<svg width="16" height="15" viewBox="0 0 16 15" fill="none" xmlns="http://www.w3.org/2000/svg">
<path d="M8.0409 0.35204C8.07683 0.241482 8.23323 0.241482 8.26916 0.35204L9.98033 5.61849C9.99639 5.66793 10.0425 5.7014 10.0945 5.7014H15.6319C15.7482 5.7014 15.7965 5.85016 15.7025 5.91849L11.2226 9.17333C11.1805 9.20389 11.1629 9.25805 11.179 9.30749L12.8901 14.5739C12.9261 14.6845 12.7995 14.7764 12.7055 14.7081L8.22556 11.4533C8.18351 11.4227 8.12655 11.4227 8.08449 11.4533L3.60459 14.7081C3.51054 14.7764 3.38401 14.6845 3.41993 14.5739L5.1311 9.30749C5.14716 9.25805 5.12957 9.20389 5.08751 9.17333L0.607601 5.91849C0.513555 5.85016 0.561888 5.7014 0.678135 5.7014H6.2156C6.26759 5.7014 6.31367 5.66793 6.32973 5.61848L8.0409 0.35204Z" fill="#FFBA0E"/>
</svg>
