<svg width="36" height="10" viewBox="0 0 36 10" fill="none" xmlns="http://www.w3.org/2000/svg">
<path d="M24.0911 0.000549316H21.3424C21.1807 0.000549316 21.019 0.162234 20.9382 0.323919L19.8064 7.43807C19.8064 7.59975 19.8872 7.6806 20.0489 7.6806H21.5041C21.6658 7.6806 21.7466 7.59975 21.7466 7.43807L22.07 5.417C22.07 5.25532 22.2317 5.09363 22.4742 5.09363H23.3635C25.2228 5.09363 26.2738 4.20436 26.5163 2.42583C26.678 1.69824 26.5163 1.0515 26.193 0.647291C25.7079 0.243078 24.9803 0.000549316 24.0911 0.000549316ZM24.4144 2.66836C24.2527 3.63847 23.5252 3.63847 22.7976 3.63847H22.3125L22.6359 1.77909C22.6359 1.69824 22.7167 1.6174 22.8784 1.6174H23.0401C23.5252 1.6174 24.0102 1.6174 24.2527 1.94077C24.4144 2.02161 24.4144 2.26414 24.4144 2.66836Z" fill="#139AD6"/>
<path d="M4.28466 0.000488281H1.53601C1.37432 0.000488281 1.21264 0.162173 1.1318 0.323858L0 7.43801C0 7.59969 0.0808435 7.68054 0.242529 7.68054H1.53601C1.69769 7.68054 1.85938 7.51885 1.94022 7.35716L2.26359 5.41694C2.26359 5.25526 2.42528 5.09357 2.66781 5.09357H3.55707C5.41645 5.09357 6.46741 4.2043 6.70993 2.42577C6.87162 1.69818 6.70993 1.05144 6.38656 0.64723C5.90151 0.243017 5.25477 0.000488281 4.28466 0.000488281ZM4.60803 2.66829C4.44634 3.63841 3.71876 3.63841 2.99118 3.63841H2.58696L2.91033 1.77903C2.91033 1.69818 2.99118 1.61734 3.15286 1.61734H3.31455C3.7996 1.61734 4.28466 1.61734 4.52718 1.94071C4.60803 2.02155 4.68887 2.26408 4.60803 2.66829Z" fill="#263B80"/>
<path d="M12.6115 2.58725H11.318C11.2371 2.58725 11.0755 2.6681 11.0755 2.74894L10.9946 3.15315L10.9138 2.99147C10.5904 2.58725 10.0245 2.42557 9.37776 2.42557C7.92259 2.42557 6.62911 3.55736 6.38658 5.09337C6.2249 5.9018 6.46743 6.62938 6.87164 7.11444C7.27585 7.59949 7.84175 7.76118 8.56933 7.76118C9.78197 7.76118 10.4287 7.03359 10.4287 7.03359L10.3479 7.43781C10.3479 7.59949 10.4287 7.68034 10.5904 7.68034H11.803C11.9647 7.68034 12.1264 7.51865 12.2073 7.35697L12.9348 2.82978C12.854 2.74894 12.6923 2.58725 12.6115 2.58725ZM10.7521 5.17422C10.5904 5.9018 10.0245 6.4677 9.21607 6.4677C8.81186 6.4677 8.48849 6.30601 8.32681 6.14433C8.16512 5.9018 8.08428 5.57843 8.08428 5.17422C8.16512 4.44663 8.81186 3.88074 9.53944 3.88074C9.94366 3.88074 10.1862 4.04242 10.4287 4.2041C10.6712 4.44663 10.7521 4.85085 10.7521 5.17422Z" fill="#263B80"/>
<path d="M32.337 2.58765H31.0436C30.9627 2.58765 30.801 2.66849 30.801 2.74933L30.7202 3.15355L30.6394 2.99186C30.316 2.58765 29.7501 2.42596 29.1033 2.42596C27.6482 2.42596 26.3547 3.55776 26.1122 5.09377C25.9505 5.9022 26.193 6.62978 26.5972 7.11484C27.0014 7.59989 27.5673 7.76158 28.2949 7.76158C29.5076 7.76158 30.1543 7.03399 30.1543 7.03399L30.0735 7.4382C30.0735 7.59989 30.1543 7.68073 30.316 7.68073H31.5286C31.6903 7.68073 31.852 7.51905 31.9328 7.35736L32.6604 2.83018C32.5796 2.74933 32.4987 2.58765 32.337 2.58765ZM30.4777 5.17461C30.316 5.9022 29.7501 6.4681 28.9417 6.4681C28.5374 6.4681 28.2141 6.30641 28.0524 6.14472C27.8907 5.9022 27.8099 5.57883 27.8099 5.17461C27.8907 4.44703 28.5374 3.88113 29.265 3.88113C29.6692 3.88113 29.9118 4.04282 30.1543 4.2045C30.4777 4.44703 30.5585 4.85124 30.4777 5.17461Z" fill="#139AD6"/>
<path d="M19.6448 2.58771H18.2705C18.1088 2.58771 18.0279 2.66855 17.9471 2.74939L16.1686 5.49804L15.3601 2.91108C15.2793 2.74939 15.1985 2.66855 14.9559 2.66855H13.6624C13.5008 2.66855 13.4199 2.83024 13.4199 2.99192L14.8751 7.27658L13.5008 9.2168C13.4199 9.37849 13.5008 9.62101 13.6624 9.62101H14.9559C15.1176 9.62101 15.1985 9.54017 15.2793 9.45933L19.7256 3.07276C19.9682 2.83024 19.8065 2.58771 19.6448 2.58771Z" fill="#263B80"/>
<path d="M33.873 0.243388L32.7412 7.51922C32.7412 7.68091 32.8221 7.76175 32.9837 7.76175H34.1155C34.2772 7.76175 34.4389 7.60006 34.5197 7.43838L35.6515 0.32423C35.6515 0.162545 35.5707 0.0817026 35.409 0.0817026H34.1155C34.0347 0.000860026 33.9538 0.0817032 33.873 0.243388Z" fill="#139AD6"/>
</svg>
